<svg xmlns="http://www.w3.org/2000/svg" viewBox="0 0 159.07 159.11"><defs><style>.cls-1{fill:#00a2ff;}.cls-2{fill:#555a5e;}.cls-3{fill:#d2d4da;}.cls-4{fill:#f4f4f4;}.cls-5{fill:#dedfe0;}.cls-6{fill:#0c00ff;}</style></defs><title>avatar</title><g id="Layer_2" data-name="Layer 2"><g id="OBJECTS"><path class="cls-1" d="M159.07,79.53A79.54,79.54,0,1,1,79.54,0,79.28,79.28,0,0,1,159.07,79.53Z"/><path class="cls-2" d="M63.79,35.8h0a6.54,6.54,0,0,1,6.54-6.54H87.09A18.93,18.93,0,0,1,106,48.19V68.52H66.16Z"/><path class="cls-2" d="M57.55,70.86H51.94V43.59A8.49,8.49,0,0,1,63.79,35.8h0C65.06,42.58,57.55,70.86,57.55,70.86Z"/><path class="cls-3" d="M91.67,92.48c-1.76,7.73-6.52,13.28-12.13,13.28S69.16,100.2,67.4,92.46l1.35-5.25.41-1.57H89.91l1.54,6,.14.54Z"/><path class="cls-4" d="M105.64,63.06c10.33-11.59,3.44,16.75-2.28,13.44C93.32,70.68,105.64,63.06,105.64,63.06Z"/><path class="cls-4" d="M136.78,134.74a80.24,80.24,0,0,1-18.32,14.16A78.92,78.92,0,0,1,83.37,159c-1.27.07-2.55.1-3.84.1a79.8,79.8,0,0,1-18.61-2.19,78.81,78.81,0,0,1-23.19-9.67,79.83,79.83,0,0,1-15.45-12.47l1.37-5.4A22.56,22.56,0,0,1,40.26,113l.9-.21,10-2.39,2.73-.65a16.51,16.51,0,0,0,5.77-2.64,16.15,16.15,0,0,0,2.34-2,16.55,16.55,0,0,0,4-7.28l1.06-4.12.28-1.11,0-.09,1.36-5.25.4-1.57H89.9l1.55,6,.14.54.08.3v.07L92,93.67,93,97.78a16.52,16.52,0,0,0,6.39,9.31,16.19,16.19,0,0,0,5.76,2.64l2.52.6L118.8,113a22.56,22.56,0,0,1,16.61,16.36Z"/><path class="cls-3" d="M91.67,92.48c-1.76,7.73-6.52,13.28-12.13,13.28S69.16,100.2,67.4,92.46l1.35-5.25.41-1.57H89.91l1.54,6,.14.54Z"/><path class="cls-4" d="M53.44,63.06C43.11,51.47,50,79.81,55.71,76.5,65.76,70.68,53.44,63.06,53.44,63.06Z"/><path class="cls-4" d="M103.58,54.71a22.41,22.41,0,0,1-.15,2.6c-.08.78-.43,4.11-1.05,8.35h0c-.34,2.35-.78,5-1.3,7.62,0,0,0,.07,0,.1-1.27,6.43-3.06,12.83-5.4,15.16-2.64,2.64-4.76,5-7.18,6.77a15.55,15.55,0,0,1-17.86,0c-2.41-1.73-4.54-4.13-7.18-6.77C61.09,86.21,59.3,79.8,58,73.38h0a0,0,0,0,1,0,0c-.16-.83-.31-1.66-.46-2.48l-.18-1c-.25-1.44-.47-2.85-.67-4.17-.72-4.87-1.07-8.54-1.07-8.54a24.06,24.06,0,0,1-.12-2.42c0-.21,0-.42,0-.63a23.69,23.69,0,0,1,.78-5.49l.06-.24a24,24,0,0,1,21.8-17.63c.46,0,.91,0,1.38,0A24,24,0,0,1,103.43,52,23.63,23.63,0,0,1,103.58,54.71Z"/><path class="cls-5" d="M83.31,76.32c0,1.66-1.69,3-3.78,3s-3.77-1.35-3.77-3a1.89,1.89,0,0,1,.08-.58,4,4,0,0,0,7.39,0A1.89,1.89,0,0,1,83.31,76.32Z"/><path class="cls-2" d="M104.3,54.91a23.81,23.81,0,0,1-.15,2.68c-.09.8-1.77,8.07-1.77,8.07C67.83,57.27,65.06,42.58,65.06,42.58A35.71,35.71,0,0,1,56.7,65.67a58.45,58.45,0,0,0-1.79-8.27,22.55,22.55,0,0,1-.13-2.49c0-.22,0-.43,0-.65a23.93,23.93,0,0,1,.81-5.65l.06-.25A24.75,24.75,0,0,1,78.11,30.2c.48,0,.94,0,1.43,0a24.76,24.76,0,0,1,24.61,22A25.07,25.07,0,0,1,104.3,54.91Z"/><path class="cls-6" d="M136.79,134.79a79.53,79.53,0,0,1-114.5,0l1.37-5.39A22.55,22.55,0,0,1,40.27,113l10.91-2.6,2.71-.65a16.25,16.25,0,0,0,3.5-1.27,30.37,30.37,0,0,0,44.3,0,16.59,16.59,0,0,0,3.5,1.27l2.37.57L118.81,113a22.52,22.52,0,0,1,16.6,16.37Z"/><path class="cls-2" d="M107.56,110.34c-2.44,3-11.41,12.33-28,13-19.14.77-27.84-12.13-28.36-12.91l2.71-.65a16.25,16.25,0,0,0,3.5-1.27,30.37,30.37,0,0,0,44.3,0,16.59,16.59,0,0,0,3.5,1.27Z"/></g></g></svg>