<svg xmlns="http://www.w3.org/2000/svg" xmlns:xlink="http://www.w3.org/1999/xlink" viewBox="0 0 480 250"><defs><style>.cls-1{fill:url(#linear-gradient);}.cls-2{opacity:0.9;}.cls-3{fill:#e6f2fb;}.cls-29,.cls-4{fill:#fff;}.cls-5{fill:#5b4251;}.cls-6{fill:#badaf6;}.cls-7{fill:#ffc033;}.cls-8{fill:#fdd03e;}.cls-9{fill:#bf855a;}.cls-10{fill:#af744b;}.cls-11{fill:#e5b483;}.cls-12{fill:#cc9669;}.cls-13{fill:#f9ac12;}.cls-14{fill:#ffc933;}.cls-15{fill:#ffc127;}.cls-16{fill:#d91a14;}.cls-17{fill:#eb4132;}.cls-18{fill:#f79e00;}.cls-19{fill:#ffdc48;}.cls-20{fill:#084ad3;}.cls-21{fill:#bfb3a9;}.cls-22{fill:#3a2632;}.cls-23{fill:#1d76e1;}.cls-24{fill:#0f55d5;}.cls-25{fill:#0e58d7;}.cls-26{fill:#4f3745;}.cls-27{fill:#9cc0e3;}.cls-28{fill:#b3ccff;}.cls-29{opacity:0.5;}.cls-30{fill:#d0e3ef;}.cls-31{fill:#ff403a;}.cls-32{fill:#98c2e2;}.cls-33{fill:#f9a30b;}.cls-34{fill:#7e97e0;}</style><linearGradient id="linear-gradient" x1="11.94" y1="12.83" x2="477.74" y2="241.93" gradientUnits="userSpaceOnUse"><stop offset="0.17" stop-color="#9762ea"/><stop offset="1" stop-color="#bc5aea"/></linearGradient></defs><title>bg_logistc_4</title><g id="Layer_2" data-name="Layer 2"><g id="Layer_1-2" data-name="Layer 1"><rect class="cls-1" width="480" height="250"/><g class="cls-2"><polygon class="cls-3" points="306.23 51.8 296.74 46.32 296.74 38.54 306.23 44.01 306.23 51.8"/><polygon class="cls-4" points="299.12 42.23 297.17 41.11 297.17 39.51 299.12 40.63 299.12 42.23"/><polygon class="cls-5" points="299.12 42.94 297.17 41.82 297.17 41.53 299.12 42.65 299.12 42.94"/><polygon class="cls-5" points="299.12 43.4 297.17 42.28 297.17 41.99 299.12 43.11 299.12 43.4"/><polygon class="cls-5" points="299.12 43.91 297.17 42.79 297.17 42.51 299.12 43.63 299.12 43.91"/><polygon class="cls-5" points="303.91 46.64 303.91 46.93 305.64 47.92 305.64 47.64 303.91 46.64"/><polygon class="cls-6" points="306.23 51.8 315.71 46.32 315.71 38.54 306.23 44.01 306.23 51.8"/><polygon class="cls-7" points="311.67 40.87 310.27 41.68 310.27 44.86 311.67 44.05 311.67 40.87"/><polygon class="cls-4" points="315.71 38.54 306.23 33.02 296.74 38.54 306.23 44.01 315.71 38.54"/><polygon class="cls-8" points="311.69 40.87 302.21 35.35 300.76 36.2 310.24 41.68 311.69 40.87"/><path class="cls-5" d="M304.65,49.92c0,.06,0,.08,0,.1a.22.22,0,0,1-.15-.18.07.07,0,1,0-.14,0,.33.33,0,0,0,.29.32.15.15,0,0,0,.14-.07.29.29,0,0,0,0-.17V48.79l.65.37a1.71,1.71,0,0,0-.72-1.37c-.4-.23-.72,0-.72.54l.64.38Z"/><path class="cls-5" d="M302.4,49.21l1.29.75V47l-1.29-.74Zm.07-2.85,1.15.67v2.81l-1.15-.67Z"/><path class="cls-5" d="M303.86,47.08v3l1.78,1v-3Zm1.71,3.86L303.93,50V47.19l1.64,1Z"/><path class="cls-5" d="M302.64,47.76a1,1,0,0,0,.31.71V49l-.2-.12c-.06,0-.11,0-.11.08a.27.27,0,0,0,.11.21l.61.35c.06,0,.11,0,.11-.08a.24.24,0,0,0-.11-.2l-.2-.12V48.6c.18,0,.31-.1.31-.36V47.12l-.83-.48Z"/><polygon class="cls-3" points="303.26 44.47 293.78 38.99 293.78 31.21 303.26 36.69 303.26 44.47"/><polygon class="cls-4" points="296.15 34.9 294.2 33.78 294.2 32.18 296.15 33.31 296.15 34.9"/><polygon class="cls-5" points="296.15 35.61 294.2 34.49 294.2 34.2 296.15 35.33 296.15 35.61"/><polygon class="cls-5" points="296.15 36.07 294.2 34.95 294.2 34.66 296.15 35.79 296.15 36.07"/><polygon class="cls-5" points="296.15 36.59 294.2 35.46 294.2 35.18 296.15 36.3 296.15 36.59"/><polygon class="cls-5" points="300.94 39.32 300.94 39.6 302.67 40.6 302.67 40.31 300.94 39.32"/><polygon class="cls-6" points="303.26 44.47 312.74 38.99 312.74 31.21 303.26 36.69 303.26 44.47"/><polygon class="cls-7" points="308.7 33.54 307.3 34.35 307.3 37.53 308.7 36.72 308.7 33.54"/><polygon class="cls-4" points="312.74 31.21 303.26 25.69 293.78 31.21 303.26 36.69 312.74 31.21"/><polygon class="cls-8" points="308.73 33.54 299.24 28.03 297.8 28.88 307.28 34.35 308.73 33.54"/><path class="cls-5" d="M301.69,42.6a.11.11,0,0,1,0,.09.21.21,0,0,1-.15-.17.08.08,0,0,0-.08-.08.08.08,0,0,0-.07.08.35.35,0,0,0,.3.32.17.17,0,0,0,.13-.07.29.29,0,0,0,0-.17V41.46l.64.38a1.73,1.73,0,0,0-.72-1.38c-.4-.23-.72,0-.72.54l.65.38Z"/><path class="cls-5" d="M299.43,41.88l1.3.75v-3l-1.3-.75ZM299.5,39l1.16.67v2.8l-1.16-.67Z"/><path class="cls-5" d="M300.9,39.75v3l1.77,1v-3Zm1.7,3.87L301,42.67v-2.8l1.63.94Z"/><path class="cls-5" d="M299.68,40.44a1,1,0,0,0,.3.7v.53l-.2-.12c-.06,0-.1,0-.1.09a.23.23,0,0,0,.1.2l.62.36c.06,0,.1,0,.1-.09a.25.25,0,0,0-.1-.2l-.2-.12v-.52c.17,0,.3-.1.3-.35V39.79l-.82-.48Z"/><polygon class="cls-9" points="317.43 58.21 328.72 51.7 328.72 42.43 317.43 48.95 317.43 58.21"/><polygon class="cls-10" points="317.43 58.21 309.88 53.93 309.88 44.67 317.43 48.95 317.43 58.21"/><polygon class="cls-11" points="309.88 44.67 321.17 38.1 328.72 42.43 317.43 48.95 309.88 44.67"/><polygon class="cls-4" points="312.77 46.3 324.04 39.74 325.02 40.31 313.71 46.84 312.77 46.3"/><polygon class="cls-5" points="320.19 48.82 317.9 50.13 317.9 49.37 320.19 48.06 320.19 48.82"/><polygon class="cls-5" points="320.19 49.48 317.9 50.79 317.9 50.41 320.19 49.1 320.19 49.48"/><polygon class="cls-5" points="320.19 50.13 317.9 51.44 317.9 51.06 320.19 49.75 320.19 50.13"/><polygon class="cls-4" points="320.19 52.48 317.9 53.79 317.9 51.79 320.19 50.48 320.19 52.48"/><polygon class="cls-6" points="312.77 46.29 313.71 46.83 313.71 49 312.77 48.46 312.77 46.29"/><path class="cls-5" d="M326,52.34a.14.14,0,0,0,0,.11.24.24,0,0,0,.17-.2.08.08,0,1,1,.16,0,.38.38,0,0,1-.33.36.18.18,0,0,1-.15-.08.33.33,0,0,1,0-.19V51.08l-.72.41a2,2,0,0,1,.8-1.54c.45-.25.81,0,.81.61L326,51Z"/><path class="cls-5" d="M328.48,51.55l-1.45.83V49.07l1.45-.84Zm-.08-3.19-1.29.75v3.14l1.29-.75Z"/><path class="cls-5" d="M326.84,49.16v3.31l-2,1.14V50.3Zm-1.91,4.32,1.83-1V49.29l-1.83,1.05Z"/><path class="cls-5" d="M328.21,49.93a1.18,1.18,0,0,1-.35.79v.59l.23-.13c.06,0,.12,0,.12.09a.31.31,0,0,1-.12.23l-.69.39c-.07,0-.12,0-.12-.09a.28.28,0,0,1,.12-.23l.22-.13v-.58c-.19,0-.34-.11-.34-.4V49.2l.93-.53Z"/><polygon class="cls-12" points="324.34 47.09 328.6 44.62 328.6 38.86 324.34 41.33 324.34 47.09"/><polygon class="cls-10" points="324.34 47.09 316.75 42.73 316.75 36.97 324.34 41.33 324.34 47.09"/><polygon class="cls-11" points="316.75 36.97 321.02 34.47 328.6 38.86 324.34 41.33 316.75 36.97"/><polygon class="cls-4" points="326.98 39.83 319.42 35.41 318.48 35.96 326.07 40.34 326.98 39.83"/><polygon class="cls-5" points="322.55 41.16 323.97 41.98 323.97 41.5 322.55 40.69 322.55 41.16"/><polygon class="cls-5" points="322.55 41.58 323.97 42.39 323.97 42.15 322.55 41.34 322.55 41.58"/><polygon class="cls-5" points="322.55 41.98 323.97 42.8 323.97 42.56 322.55 41.74 322.55 41.98"/><polygon class="cls-4" points="322.55 43.44 323.97 44.25 323.97 43.01 322.55 42.2 322.55 43.44"/><polygon class="cls-6" points="326.97 39.81 326.07 40.33 326.07 42.4 326.97 41.88 326.97 39.81"/><path class="cls-5" d="M319,43.25s0,.07,0,.08a.16.16,0,0,1-.13-.14.06.06,0,0,0-.12,0,.29.29,0,0,0,.25.27.14.14,0,0,0,.11-.06.3.3,0,0,0,0-.15v-.94l.54.31a1.43,1.43,0,0,0-.61-1.15c-.33-.19-.6,0-.6.46l.54.31Z"/><path class="cls-5" d="M317.13,42.66l1.08.62V40.81l-1.08-.63Zm.06-2.38,1,.56v2.35l-1-.56Z"/><path class="cls-5" d="M318.35,40.88v2.47l1.48.86V41.73Zm1.43,3.23-1.37-.79V41l1.37.78Z"/><path class="cls-5" d="M317.33,41.45a.85.85,0,0,0,.26.59v.44l-.17-.09c-.05,0-.09,0-.09.06a.23.23,0,0,0,.09.18l.51.29c.05,0,.09,0,.09-.07a.22.22,0,0,0-.09-.17l-.16-.09v-.44c.14,0,.25-.09.25-.3v-.94l-.69-.4Z"/><polygon class="cls-12" points="393.98 188.15 382.64 181.6 382.64 172.29 393.98 178.84 393.98 188.15"/><polygon class="cls-9" points="393.98 188.15 401.56 183.84 401.56 174.54 393.98 178.84 393.98 188.15"/><polygon class="cls-11" points="401.56 174.54 390.23 167.94 382.64 172.29 393.98 178.84 401.56 174.54"/><polygon class="cls-4" points="398.67 176.18 387.34 169.59 386.35 170.16 397.71 176.72 398.67 176.18"/><polygon class="cls-5" points="391.21 178.71 393.5 180.03 393.5 179.26 391.21 177.94 391.21 178.71"/><polygon class="cls-5" points="391.21 179.37 393.5 180.69 393.5 180.31 391.21 178.99 391.21 179.37"/><polygon class="cls-5" points="391.21 180.03 393.5 181.34 393.5 180.96 391.21 179.65 391.21 180.03"/><polygon class="cls-4" points="391.21 182.38 393.5 183.7 393.5 181.69 391.21 180.38 391.21 182.38"/><polygon class="cls-6" points="398.66 176.17 397.72 176.71 397.72 178.89 398.66 178.34 398.66 176.17"/><path class="cls-5" d="M385.42,182.25c0,.06,0,.09,0,.1a.23.23,0,0,1-.17-.19.08.08,0,1,0-.16,0,.38.38,0,0,0,.33.36.18.18,0,0,0,.15-.08.29.29,0,0,0,.05-.19V181l.73.42a1.93,1.93,0,0,0-.81-1.55c-.45-.26-.81,0-.81.61l.73.42Z"/><path class="cls-5" d="M382.88,181.45l1.46.84V179l-1.46-.84Zm.08-3.2,1.3.75v3.15l-1.3-.75Z"/><path class="cls-5" d="M384.53,179.05v3.33l2,1.15V180.2Zm1.91,4.34-1.84-1v-3.16l1.84,1.06Z"/><path class="cls-5" d="M383.16,179.82a1.17,1.17,0,0,0,.34.8v.59l-.22-.13c-.07,0-.12,0-.12.09a.28.28,0,0,0,.12.23l.68.4c.07,0,.13,0,.13-.09a.31.31,0,0,0-.13-.24l-.22-.12v-.59c.2,0,.35-.12.35-.4v-1.27l-.93-.53Z"/><polygon class="cls-12" points="379.11 192.86 369.46 187.29 369.46 179.36 379.11 184.94 379.11 192.86"/><polygon class="cls-9" points="379.11 192.86 388.57 187.47 388.57 179.54 379.11 184.94 379.11 192.86"/><polygon class="cls-11" points="388.57 179.54 378.92 173.93 369.46 179.36 379.11 184.94 388.57 179.54"/><polygon class="cls-4" points="384.5 181.87 374.86 176.26 374.02 176.74 383.69 182.33 384.5 181.87"/><polygon class="cls-5" points="376.75 184.83 378.7 185.95 378.7 185.29 376.75 184.17 376.75 184.83"/><polygon class="cls-5" points="376.75 185.39 378.7 186.51 378.7 186.19 376.75 185.07 376.75 185.39"/><polygon class="cls-5" points="376.75 185.95 378.7 187.07 378.7 186.74 376.75 185.62 376.75 185.95"/><polygon class="cls-4" points="376.75 187.95 378.7 189.07 378.7 187.37 376.75 186.25 376.75 187.95"/><polygon class="cls-6" points="384.5 181.86 383.69 182.32 383.69 184.17 384.5 183.71 384.5 181.86"/><path class="cls-5" d="M371.82,187.84a.11.11,0,0,1,0,.09.2.2,0,0,1-.14-.17.07.07,0,0,0-.14,0,.32.32,0,0,0,.28.31.17.17,0,0,0,.13-.07.25.25,0,0,0,0-.16v-1.08l.62.35a1.65,1.65,0,0,0-.69-1.31c-.38-.22-.69,0-.69.52l.62.35Z"/><path class="cls-5" d="M369.66,187.16l1.24.71V185l-1.24-.72Zm.07-2.72,1.1.63v2.69l-1.1-.64Z"/><path class="cls-5" d="M371.06,185.12V188l1.7,1v-2.84Zm1.63,3.69-1.56-.9v-2.68l1.56.9Z"/><path class="cls-5" d="M369.89,185.77a1,1,0,0,0,.3.68v.5l-.19-.11c-.06,0-.11,0-.11.08a.26.26,0,0,0,.11.2l.58.34c.06,0,.11,0,.11-.08a.24.24,0,0,0-.11-.2l-.19-.11v-.5c.17,0,.3-.1.3-.34v-1.08l-.8-.45Z"/><polygon class="cls-12" points="393.05 176.51 397.14 174.15 397.14 168.61 393.05 170.98 393.05 176.51"/><polygon class="cls-10" points="393.05 176.51 385.77 172.33 385.77 166.8 393.05 170.98 393.05 176.51"/><polygon class="cls-11" points="385.77 166.8 389.86 164.4 397.14 168.61 393.05 170.98 385.77 166.8"/><polygon class="cls-4" points="395.58 169.54 388.33 165.3 387.43 165.83 394.71 170.04 395.58 169.54"/><polygon class="cls-5" points="391.34 170.83 392.7 171.61 392.7 171.16 391.34 170.37 391.34 170.83"/><polygon class="cls-5" points="391.34 171.22 392.7 172.01 392.7 171.78 391.34 171 391.34 171.22"/><polygon class="cls-5" points="391.34 171.61 392.7 172.4 392.7 172.17 391.34 171.38 391.34 171.61"/><polygon class="cls-4" points="391.34 173.01 392.7 173.79 392.7 172.6 391.34 171.82 391.34 173.01"/><polygon class="cls-6" points="395.58 169.53 394.72 170.03 394.72 172.02 395.58 171.52 395.58 169.53"/><path class="cls-5" d="M387.94,172.84s0,.06,0,.07a.16.16,0,0,1-.12-.14.06.06,0,0,0-.06-.06.06.06,0,0,0-.05.06.27.27,0,0,0,.23.26A.11.11,0,0,0,388,173a.18.18,0,0,0,0-.13v-.91l.52.3a1.36,1.36,0,0,0-.58-1.1c-.32-.19-.58,0-.58.43l.52.3Z"/><path class="cls-5" d="M386.13,172.27l1,.6v-2.38l-1-.6Zm.05-2.29.93.54v2.25l-.93-.54Z"/><path class="cls-5" d="M387.3,170.55v2.38l1.43.82v-2.38Zm1.37,3.1-1.31-.75v-2.25l1.31.75Z"/><path class="cls-5" d="M386.32,171.11a.83.83,0,0,0,.25.56v.42l-.16-.09c-.05,0-.09,0-.09.07a.2.2,0,0,0,.09.16l.49.29c.05,0,.09,0,.09-.07a.19.19,0,0,0-.09-.16l-.16-.1v-.42c.14,0,.25-.08.25-.28v-.9l-.67-.39Z"/><polygon class="cls-9" points="424.75 166.03 434.26 160.54 434.26 152.74 424.75 158.23 424.75 166.03"/><polygon class="cls-10" points="424.75 166.03 418.39 162.43 418.39 154.63 424.75 158.23 424.75 166.03"/><polygon class="cls-11" points="418.39 154.63 427.9 149.09 434.26 152.74 424.75 158.23 418.39 154.63"/><polygon class="cls-4" points="420.82 156 430.32 150.48 431.15 150.96 421.62 156.46 420.82 156"/><polygon class="cls-5" points="427.08 158.12 425.15 159.23 425.15 158.58 427.08 157.48 427.08 158.12"/><polygon class="cls-5" points="427.08 158.68 425.15 159.78 425.15 159.46 427.08 158.36 427.08 158.68"/><polygon class="cls-5" points="427.08 159.23 425.15 160.33 425.15 160.01 427.08 158.91 427.08 159.23"/><polygon class="cls-4" points="427.08 161.2 425.15 162.31 425.15 160.62 427.08 159.52 427.08 161.2"/><polygon class="cls-6" points="420.83 155.99 421.62 156.45 421.62 158.27 420.83 157.82 420.83 155.99"/><path class="cls-5" d="M431.93,161.09a.11.11,0,0,0,0,.09.2.2,0,0,0,.14-.17.07.07,0,0,1,.14,0,.32.32,0,0,1-.28.3.16.16,0,0,1-.13-.06.34.34,0,0,1,0-.16V160l-.61.35a1.62,1.62,0,0,1,.68-1.29c.38-.22.68,0,.68.51l-.61.35Z"/><path class="cls-5" d="M434.06,160.42l-1.22.7v-2.79l1.22-.7Zm-.07-2.68-1.09.63V161l1.09-.63Z"/><path class="cls-5" d="M432.68,158.41v2.79l-1.67,1v-2.79Zm-1.61,3.64,1.54-.89v-2.64l-1.54.89Z"/><path class="cls-5" d="M433.83,159.06a1,1,0,0,1-.29.66v.5l.19-.11s.1,0,.1.07a.26.26,0,0,1-.1.2l-.58.33c-.06,0-.1,0-.1-.08a.23.23,0,0,1,.1-.19l.19-.11v-.49c-.17,0-.29-.09-.29-.33v-1.06l.78-.45Z"/><polygon class="cls-12" points="429.09 156.82 432.68 154.74 432.68 149.89 429.09 151.97 429.09 156.82"/><polygon class="cls-10" points="429.09 156.82 422.7 153.15 422.7 148.3 429.09 151.97 429.09 156.82"/><polygon class="cls-11" points="422.7 148.3 426.29 146.19 432.68 149.89 429.09 151.97 422.7 148.3"/><polygon class="cls-4" points="431.31 150.7 424.95 146.98 424.15 147.44 430.55 151.13 431.31 150.7"/><polygon class="cls-5" points="427.58 151.83 428.78 152.52 428.78 152.12 427.58 151.43 427.58 151.83"/><polygon class="cls-5" points="427.58 152.18 428.78 152.86 428.78 152.66 427.58 151.98 427.58 152.18"/><polygon class="cls-5" points="427.58 152.52 428.78 153.2 428.78 153 427.58 152.32 427.58 152.52"/><polygon class="cls-4" points="427.58 153.75 428.78 154.43 428.78 153.38 427.58 152.7 427.58 153.75"/><polygon class="cls-6" points="431.3 150.69 430.55 151.13 430.55 152.87 431.3 152.44 431.3 150.69"/><path class="cls-5" d="M424.6,153.59a.1.1,0,0,1,0,.07s-.1-.07-.1-.12a.06.06,0,1,0-.11,0,.24.24,0,0,0,.21.22.14.14,0,0,0,.1,0,.21.21,0,0,0,0-.12v-.8l.45.27a1.21,1.21,0,0,0-.51-1c-.28-.16-.5,0-.5.38l.45.26Z"/><path class="cls-5" d="M423,153.09l.91.53v-2.09L423,151Zm0-2,.82.47v2l-.82-.47Z"/><path class="cls-5" d="M424.05,151.59v2.08l1.24.72v-2.08Zm1.2,2.72-1.16-.66v-2l1.16.66Z"/><path class="cls-5" d="M423.19,152.07a.76.76,0,0,0,.21.5v.37l-.14-.08s-.07,0-.07.06a.17.17,0,0,0,.07.14l.43.25c.05,0,.08,0,.08-.06a.16.16,0,0,0-.08-.14l-.14-.08v-.37c.13,0,.22-.07.22-.25v-.79l-.58-.34Z"/><path class="cls-5" d="M459.41,166.13h-1.35v.23L445.31,159a5.09,5.09,0,0,0-4.55.19l-11.37,6.59v-.08H428v1.66h0a1.32,1.32,0,0,0,.77,1.18l13.33,7.7a5.07,5.07,0,0,0,4.54-.19l11.62-6.73a1.83,1.83,0,0,0,1.11-1.54h0Z"/><path class="cls-13" d="M459.41,164.82h-1.35v.24l-12.75-7.37a5.09,5.09,0,0,0-4.55.19l-11.37,6.59v-.08H428v1.66h0a1.33,1.33,0,0,0,.77,1.19l13.33,7.69a5,5,0,0,0,4.54-.19L458.3,168a1.81,1.81,0,0,0,1.11-1.53h0Z"/><path class="cls-14" d="M428.81,165.48l13.33,7.69a5,5,0,0,0,4.54-.19l11.62-6.73c1.34-.77,1.49-1.95.33-2.62l-13.32-7.69a5.09,5.09,0,0,0-4.55.18l-11.62,6.74C427.8,163.63,427.65,164.81,428.81,165.48Z"/><polygon class="cls-13" points="450.22 159.44 451.68 160.88 452.19 160.58 452.19 143.81 450.22 142.68 450.22 159.44"/><polygon class="cls-15" points="449.71 159.74 451.68 160.88 451.68 144.12 449.71 142.98 449.71 159.74"/><path class="cls-13" d="M453.36,144.23a6.38,6.38,0,0,0-2.66-5.09,1.75,1.75,0,0,0-1.59-.21h0l-1.07.63.24.27a3.47,3.47,0,0,0-.24,1.33,6.39,6.39,0,0,0,2.67,5.09,2.32,2.32,0,0,0,.65.26l.18.42,1-.61h0A2.47,2.47,0,0,0,453.36,144.23Z"/><path class="cls-14" d="M447.13,141.69a6.39,6.39,0,0,0,2.67,5.09c1.47.85,2.66-.06,2.66-2a6.35,6.35,0,0,0-2.66-5.08C448.33,138.83,447.13,139.73,447.13,141.69Z"/><ellipse class="cls-5" cx="449.82" cy="143.26" rx="2.03" ry="3.69" transform="matrix(0.92, -0.4, 0.4, 0.92, -19.88, 190.59)"/><path class="cls-4" d="M447.59,141.91a5.75,5.75,0,0,0,2.3,4.36c1.23.74,2.19,0,2.15-1.65a5.73,5.73,0,0,0-2.29-4.36C448.52,139.51,447.56,140.25,447.59,141.91Z"/><path class="cls-5" d="M449.53,143.23a.73.73,0,0,0,.3.55c.15.1.28,0,.27-.21a.69.69,0,0,0-.29-.55C449.65,142.92,449.53,143,449.53,143.23Z"/><polygon class="cls-5" points="449.97 143.44 449.82 141.14 449.67 143.15 449.97 143.44"/><path class="cls-4" d="M457.19,165.18a.81.81,0,0,0,0-.22v-1l-.62.11-.1-.06-12.38-7.15a4.71,4.71,0,0,0-4.22.18l-9.74,5.62a2.61,2.61,0,0,0-.62.48l-.41-.07v1.11h0a1.34,1.34,0,0,0,.72.92l12.38,7.15a4.71,4.71,0,0,0,4.22-.18l9.74-5.62a1.84,1.84,0,0,0,1-1.26Z"/><path class="cls-4" d="M429.83,164.07l12.38,7.15a4.74,4.74,0,0,0,4.22-.17l9.74-5.63c1.24-.71,1.38-1.81.3-2.43l-12.38-7.15a4.67,4.67,0,0,0-4.22.17l-9.74,5.62C428.89,162.35,428.75,163.45,429.83,164.07Z"/><polygon class="cls-12" points="443.23 168.51 434.77 163.63 434.77 156.67 443.23 161.56 443.23 168.51"/><polygon class="cls-9" points="443.23 168.51 451.53 163.78 451.53 156.83 443.23 161.56 443.23 168.51"/><polygon class="cls-11" points="451.53 156.83 443.07 151.91 434.77 156.67 443.23 161.56 451.53 156.83"/><polygon class="cls-4" points="447.96 158.87 439.51 153.95 438.77 154.38 447.25 159.28 447.96 158.87"/><polygon class="cls-5" points="441.16 161.47 442.88 162.45 442.88 161.88 441.16 160.9 441.16 161.47"/><polygon class="cls-5" points="441.16 161.96 442.88 162.95 442.88 162.66 441.16 161.68 441.16 161.96"/><polygon class="cls-5" points="441.16 162.45 442.88 163.44 442.88 163.15 441.16 162.17 441.16 162.45"/><polygon class="cls-4" points="441.16 164.21 442.88 165.19 442.88 163.69 441.16 162.71 441.16 164.21"/><polygon class="cls-6" points="447.96 158.86 447.25 159.27 447.25 160.9 447.96 160.49 447.96 158.86"/><path class="cls-5" d="M436.84,164.11a.09.09,0,0,1,0,.08.18.18,0,0,1-.12-.15.06.06,0,0,0-.06-.06.07.07,0,0,0-.07.06.29.29,0,0,0,.25.27.14.14,0,0,0,.12-.06.26.26,0,0,0,0-.14v-1l.55.31a1.49,1.49,0,0,0-.61-1.15c-.33-.19-.6,0-.61.45l.55.32Z"/><path class="cls-5" d="M435,163.51l1.08.63v-2.49L435,161Zm.05-2.39,1,.56V164l-1-.56Z"/><path class="cls-5" d="M436.17,161.72v2.49l1.49.85v-2.48ZM437.6,165l-1.37-.79v-2.35l1.37.79Z"/><path class="cls-5" d="M435.15,162.3a.87.87,0,0,0,.26.59v.44l-.17-.09c-.05,0-.09,0-.09.06a.23.23,0,0,0,.09.18l.51.29c.05,0,.09,0,.09-.07a.22.22,0,0,0-.09-.17l-.16-.09V163c.15,0,.25-.09.25-.3v-.95l-.69-.4Z"/><path class="cls-16" d="M354.64,58.74c0,2.91-3.95,5.26-8.81,5.26S337,61.65,337,58.74s3.95-5.25,8.82-5.25S354.64,55.84,354.64,58.74Z"/><rect class="cls-16" x="337.01" y="56.99" width="17.62" height="1.75"/><path class="cls-17" d="M354.64,57c0,2.91-3.95,5.26-8.81,5.26S337,59.9,337,57s3.95-5.25,8.82-5.25S354.64,54.09,354.64,57Z"/><path class="cls-4" d="M352.45,56.7c0,2.18-3,3.95-6.62,3.95s-6.62-1.77-6.62-3.95,3-4,6.62-4S352.45,54.52,352.45,56.7Z"/><path class="cls-18" d="M346.71,33c3.11,1.82,5.64,6.7,5.64,10.9a7.17,7.17,0,0,1-.58,3l-3.91,8.28c-.16-.13-5.19-10.52-6.08-13.78a16.9,16.9,0,0,1-.7-4.09C341.08,33.14,343.6,31.21,346.71,33Zm-.22,12.33c1.89,1.11,3.43-.06,3.43-2.62s-1.54-5.53-3.43-6.64-3.43.07-3.43,2.62S344.59,44.26,346.49,45.36Z"/><path class="cls-18" d="M339.76,34.71l3.3-2a15.26,15.26,0,0,1,6.23,4.52c2.54,3.23,2,8.34,1.21,10.64s-2.64,7.34-2.64,7.34l-3.05,1.84s1.55-7,2.61-10.37S347,38,344.7,36.42A10,10,0,0,0,339.76,34.71Z"/><path class="cls-18" d="M339.34,38.24a6,6,0,0,1,2.87-2.7s-.38,3.86.41,5.92,2.84,7.32,2.84,7.32-4-.65-4.93-2.14S338.7,39.94,339.34,38.24Z"/><path class="cls-19" d="M343.66,34.87c3.11,1.82,5.63,6.7,5.63,10.9a7.34,7.34,0,0,1-.57,3l-3.91,8.28c-.16-.13-5.19-10.52-6.08-13.78a16.9,16.9,0,0,1-.7-4.09C338,35,340.55,33.05,343.66,34.87Zm-.23,12.33c1.9,1.11,3.44-.06,3.44-2.62s-1.54-5.53-3.44-6.64S340,38,340,40.57,341.54,46.1,343.43,47.2Z"/><path class="cls-16" d="M250.23,118.27c0,2.9-3.94,5.25-8.81,5.25s-8.81-2.35-8.81-5.25,3.94-5.26,8.81-5.26S250.23,115.37,250.23,118.27Z"/><rect class="cls-16" x="232.61" y="116.52" width="17.62" height="1.75"/><path class="cls-17" d="M250.23,116.52c0,2.9-3.94,5.26-8.81,5.26s-8.81-2.36-8.81-5.26,3.94-5.26,8.81-5.26S250.23,113.62,250.23,116.52Z"/><path class="cls-4" d="M248,116.23c0,2.18-3,3.94-6.62,3.94s-6.62-1.76-6.62-3.94,3-4,6.62-4S248,114,248,116.23Z"/><path class="cls-18" d="M242.31,92.56c3.11,1.82,5.63,6.7,5.63,10.9a7.09,7.09,0,0,1-.58,3l-3.91,8.28c-.16-.13-5.18-10.52-6.07-13.77a16.44,16.44,0,0,1-.71-4.1C236.67,92.67,239.19,90.74,242.31,92.56Zm-.23,12.33c1.9,1.11,3.43-.07,3.43-2.63s-1.53-5.53-3.43-6.64-3.43.07-3.43,2.63S240.19,103.78,242.08,104.89Z"/><path class="cls-18" d="M235.36,94.24l3.29-2a15.26,15.26,0,0,1,6.24,4.52c2.54,3.22,2,8.34,1.21,10.63s-2.65,7.34-2.65,7.34l-3,1.85s1.55-7,2.62-10.37-.43-8.66-2.72-10.28A10,10,0,0,0,235.36,94.24Z"/><path class="cls-18" d="M234.93,97.77a6,6,0,0,1,2.88-2.7s-.39,3.86.4,5.92,2.85,7.31,2.85,7.31-4-.64-4.93-2.14S234.3,99.47,234.93,97.77Z"/><path class="cls-19" d="M239.25,94.4c3.12,1.82,5.64,6.7,5.64,10.9a7.09,7.09,0,0,1-.58,3l-3.91,8.29c-.16-.14-5.18-10.52-6.07-13.78a16.44,16.44,0,0,1-.71-4.1C233.62,94.51,236.14,92.58,239.25,94.4ZM239,106.73c1.89,1.11,3.43-.07,3.43-2.63s-1.54-5.53-3.43-6.64-3.43.07-3.43,2.63S237.13,105.62,239,106.73Z"/><polygon class="cls-12" points="359.04 42.21 349.72 36.82 349.72 29.17 359.04 34.55 359.04 42.21"/><polygon class="cls-9" points="359.04 42.21 368.18 37 368.18 29.35 359.04 34.55 359.04 42.21"/><polygon class="cls-11" points="368.18 29.35 358.86 23.92 349.72 29.17 359.04 34.55 368.18 29.35"/><polygon class="cls-4" points="364.25 31.59 354.94 26.18 354.13 26.64 363.47 32.04 364.25 31.59"/><polygon class="cls-5" points="356.76 34.45 358.65 35.53 358.65 34.9 356.76 33.82 356.76 34.45"/><polygon class="cls-5" points="356.76 34.99 358.65 36.08 358.65 35.76 356.76 34.68 356.76 34.99"/><polygon class="cls-5" points="356.76 35.53 358.65 36.62 358.65 36.3 356.76 35.22 356.76 35.53"/><polygon class="cls-4" points="356.76 37.47 358.65 38.55 358.65 36.9 356.76 35.82 356.76 37.47"/><polygon class="cls-6" points="364.25 31.58 363.47 32.03 363.47 33.82 364.25 33.37 364.25 31.58"/><path class="cls-5" d="M352,37.36s0,.07,0,.08a.18.18,0,0,1-.14-.16.07.07,0,0,0-.14,0,.32.32,0,0,0,.28.3.13.13,0,0,0,.12-.07.22.22,0,0,0,0-.15v-1l.6.35a1.58,1.58,0,0,0-.67-1.27c-.37-.22-.66,0-.67.5l.6.34Z"/><path class="cls-5" d="M349.92,36.7l1.19.69V34.65L349.92,34Zm.06-2.63,1.07.62v2.59L350,36.66Z"/><path class="cls-5" d="M351.27,34.73v2.74l1.64.94V35.67Zm1.58,3.57-1.51-.87V34.84l1.51.87Z"/><path class="cls-5" d="M350.14,35.36a1,1,0,0,0,.29.66v.48l-.19-.1c-.05,0-.1,0-.1.07a.26.26,0,0,0,.1.19l.57.33c.05,0,.1,0,.1-.08a.26.26,0,0,0-.1-.19l-.18-.1v-.49c.16,0,.28-.09.28-.32v-1l-.77-.45Z"/><polygon class="cls-3" points="377.03 46.09 367.01 40.31 367.01 32.09 377.03 37.87 377.03 46.09"/><polygon class="cls-4" points="369.52 35.99 367.46 34.8 367.46 33.12 369.52 34.3 369.52 35.99"/><polygon class="cls-5" points="369.52 36.74 367.46 35.55 367.46 35.25 369.52 36.44 369.52 36.74"/><polygon class="cls-5" points="369.52 37.22 367.46 36.04 367.46 35.74 369.52 36.92 369.52 37.22"/><polygon class="cls-5" points="369.52 37.77 367.46 36.58 367.46 36.28 369.52 37.47 369.52 37.77"/><polygon class="cls-5" points="374.58 40.65 374.58 40.95 376.4 42.01 376.4 41.7 374.58 40.65"/><polygon class="cls-6" points="377.03 46.09 387.04 40.31 387.04 32.09 377.03 37.87 377.03 46.09"/><polygon class="cls-7" points="382.77 34.55 381.29 35.41 381.29 38.77 382.77 37.91 382.77 34.55"/><polygon class="cls-4" points="387.04 32.09 377.03 26.26 367.01 32.09 377.03 37.87 387.04 32.09"/><polygon class="cls-8" points="382.8 34.55 372.79 28.73 371.25 29.63 381.27 35.41 382.8 34.55"/><path class="cls-5" d="M375.37,44.11c0,.06,0,.09,0,.1a.21.21,0,0,1-.15-.18.09.09,0,0,0-.08-.08A.08.08,0,0,0,375,44a.36.36,0,0,0,.31.34.19.19,0,0,0,.15-.08.3.3,0,0,0,0-.18V42.92l.69.39a1.82,1.82,0,0,0-.77-1.45c-.42-.24-.76,0-.76.57l.69.4Z"/><path class="cls-5" d="M373,43.36l1.37.79V41L373,40.23Zm.08-3,1.22.7v3l-1.22-.71Z"/><path class="cls-5" d="M374.53,41.11v3.13l1.87,1.08V42.19Zm1.8,4.08-1.73-1v-3l1.73,1Z"/><path class="cls-5" d="M373.24,41.83a1.12,1.12,0,0,0,.32.75v.56l-.21-.13c-.06,0-.11,0-.11.09a.3.3,0,0,0,.11.22l.65.37c.06,0,.12,0,.12-.08a.27.27,0,0,0-.12-.22l-.21-.12v-.56c.19,0,.33-.1.33-.37V41.15l-.88-.51Z"/><polygon class="cls-12" points="368.07 47.8 371.91 45.57 371.91 40.37 368.07 42.6 368.07 47.8"/><polygon class="cls-10" points="368.07 47.8 361.23 43.87 361.23 38.67 368.07 42.6 368.07 47.8"/><polygon class="cls-11" points="361.23 38.67 365.07 36.41 371.91 40.37 368.07 42.6 361.23 38.67"/><polygon class="cls-4" points="370.45 41.24 363.63 37.26 362.78 37.76 369.63 41.71 370.45 41.24"/><polygon class="cls-5" points="366.46 42.45 367.74 43.19 367.74 42.76 366.46 42.02 366.46 42.45"/><polygon class="cls-5" points="366.46 42.82 367.74 43.56 367.74 43.34 366.46 42.61 366.46 42.82"/><polygon class="cls-5" points="366.46 43.19 367.74 43.92 367.74 43.71 366.46 42.98 366.46 43.19"/><polygon class="cls-4" points="366.46 44.5 367.74 45.24 367.74 44.12 366.46 43.38 366.46 44.5"/><polygon class="cls-6" points="370.44 41.24 369.63 41.7 369.63 43.57 370.44 43.1 370.44 41.24"/><path class="cls-5" d="M363.26,44.34s0,.06,0,.07a.15.15,0,0,1-.11-.13.06.06,0,0,0-.06-.06.06.06,0,0,0-.05.06.26.26,0,0,0,.22.24.12.12,0,0,0,.1-.05.25.25,0,0,0,0-.13v-.85l.48.28a1.3,1.3,0,0,0-.54-1c-.3-.17-.54,0-.54.41l.48.28Z"/><path class="cls-5" d="M361.56,43.8l1,.57V42.13l-1-.56Zm.06-2.14.87.5v2.12l-.87-.51Z"/><path class="cls-5" d="M362.67,42.19v2.24l1.33.77V43ZM364,45.11l-1.23-.71V42.28L364,43Z"/><path class="cls-5" d="M361.75,42.71a.83.83,0,0,0,.23.54v.39l-.15-.09c-.05,0-.08,0-.08.07a.16.16,0,0,0,.08.15l.46.27s.08,0,.08-.06a.23.23,0,0,0-.08-.16l-.15-.09v-.39c.13,0,.23-.08.23-.27v-.85l-.62-.36Z"/><polygon class="cls-12" points="376.6 36.41 367.27 31.02 367.27 23.37 376.6 28.75 376.6 36.41"/><polygon class="cls-9" points="376.6 36.41 385.74 31.2 385.74 23.54 376.6 28.75 376.6 36.41"/><polygon class="cls-11" points="385.74 23.54 376.41 18.12 367.27 23.37 376.6 28.75 385.74 23.54"/><polygon class="cls-4" points="381.8 25.79 372.49 20.37 371.68 20.84 381.02 26.23 381.8 25.79"/><polygon class="cls-5" points="374.31 28.65 376.2 29.73 376.2 29.1 374.31 28.02 374.31 28.65"/><polygon class="cls-5" points="374.31 29.19 376.2 30.27 376.2 29.96 374.31 28.88 374.31 29.19"/><polygon class="cls-5" points="374.31 29.73 376.2 30.81 376.2 30.5 374.31 29.42 374.31 29.73"/><polygon class="cls-4" points="374.31 31.67 376.2 32.75 376.2 31.1 374.31 30.02 374.31 31.67"/><polygon class="cls-6" points="381.8 25.78 381.02 26.23 381.02 28.02 381.8 27.57 381.8 25.78"/><path class="cls-5" d="M369.55,31.55c0,.06,0,.08,0,.09a.18.18,0,0,1-.14-.16.07.07,0,0,0-.14,0,.33.33,0,0,0,.28.3.15.15,0,0,0,.12-.07.25.25,0,0,0,0-.16v-1l.6.34a1.6,1.6,0,0,0-.67-1.27c-.37-.21-.66,0-.66.51l.59.34Z"/><path class="cls-5" d="M367.47,30.9l1.2.69V28.85l-1.2-.69Zm.06-2.63,1.07.62v2.59l-1.07-.62Z"/><path class="cls-5" d="M368.82,28.93v2.73l1.64.95V29.87Zm1.58,3.57-1.51-.87V29l1.51.87Z"/><path class="cls-5" d="M367.7,29.56a1,1,0,0,0,.28.65v.49l-.19-.11c-.05,0-.09,0-.09.08a.25.25,0,0,0,.09.19l.57.33c.06,0,.1,0,.1-.08a.23.23,0,0,0-.1-.19l-.18-.11v-.48c.16,0,.28-.09.28-.33V29l-.76-.44Z"/><polygon class="cls-3" points="355.9 34.41 345.88 28.63 345.88 20.41 355.9 26.19 355.9 34.41"/><polygon class="cls-4" points="348.39 24.31 346.33 23.12 346.33 21.44 348.39 22.62 348.39 24.31"/><polygon class="cls-5" points="348.39 25.06 346.33 23.87 346.33 23.57 348.39 24.76 348.39 25.06"/><polygon class="cls-5" points="348.39 25.54 346.33 24.36 346.33 24.06 348.39 25.24 348.39 25.54"/><polygon class="cls-5" points="348.39 26.09 346.33 24.9 346.33 24.6 348.39 25.79 348.39 26.09"/><polygon class="cls-5" points="353.45 28.97 353.45 29.27 355.27 30.32 355.27 30.02 353.45 28.97"/><polygon class="cls-6" points="355.9 34.41 365.91 28.63 365.91 20.41 355.9 26.19 355.9 34.41"/><polygon class="cls-7" points="361.64 22.87 360.16 23.73 360.16 27.09 361.64 26.23 361.64 22.87"/><polygon class="cls-4" points="365.91 20.41 355.9 14.58 345.88 20.41 355.9 26.19 365.91 20.41"/><polygon class="cls-8" points="361.67 22.87 351.65 17.05 350.12 17.95 360.14 23.73 361.67 22.87"/><path class="cls-5" d="M354.24,32.43c0,.06,0,.09,0,.1a.21.21,0,0,1-.15-.18.09.09,0,0,0-.08-.08.08.08,0,0,0-.08.08.36.36,0,0,0,.31.34.19.19,0,0,0,.15-.08.3.3,0,0,0,0-.18V31.24l.69.39a1.85,1.85,0,0,0-.77-1.45c-.42-.24-.76,0-.76.57l.69.4Z"/><path class="cls-5" d="M351.85,31.68l1.37.79V29.34l-1.37-.79Zm.08-3,1.22.7v3l-1.22-.7Z"/><path class="cls-5" d="M353.4,29.43v3.13l1.87,1.08V30.5Zm1.8,4.08-1.73-1v-3l1.73,1Z"/><path class="cls-5" d="M352.11,30.15a1.12,1.12,0,0,0,.32.75v.55l-.21-.12c-.06,0-.11,0-.11.09a.3.3,0,0,0,.11.22l.65.37c.06,0,.11,0,.11-.09a.26.26,0,0,0-.11-.21l-.21-.12V31c.19,0,.32-.1.32-.37V29.47l-.87-.51Z"/><polygon class="cls-20" points="336.66 92.76 303.97 91.75 303.97 93.17 336.18 94.17 369.35 131.41 369.35 129.5 336.66 92.76"/><polygon class="cls-3" points="303.97 93.17 303.97 128.58 310.59 132.4 310.59 131.6 332.95 144.5 332.95 145.31 338.04 148.26 338.7 147.86 360.38 160.38 360.38 161.15 369.35 166.32 369.35 131.41 336.18 94.17 303.97 93.17"/><polygon class="cls-21" points="392.15 77.77 457.53 115.51 457.53 78.69 424.84 41.95 392.15 40.94 392.15 77.77"/><polygon class="cls-6" points="369.35 129.5 457.53 78.69 457.53 115.51 369.35 166.32 369.35 129.5"/><polygon class="cls-5" points="442.17 92.91 452.52 86.95 452.52 91.27 442.17 97.23 442.17 92.91"/><polygon class="cls-22" points="451.4 88.61 451.4 90.52 442.99 95.45 442.99 95.87 451.71 90.75 451.71 88.43 451.4 88.61"/><polygon class="cls-23" points="451.4 88.61 442.99 93.55 442.99 95.45 451.4 90.52 451.4 88.61"/><polygon class="cls-5" points="428.3 100.79 438.65 94.82 438.65 99.14 428.3 105.11 428.3 100.79"/><polygon class="cls-22" points="437.53 96.48 437.53 98.39 429.11 103.33 429.11 103.75 437.83 98.62 437.83 96.3 437.53 96.48"/><polygon class="cls-23" points="437.53 96.48 429.11 101.42 429.11 103.33 437.53 98.39 437.53 96.48"/><polygon class="cls-5" points="389.2 123.72 399.55 117.76 399.55 122.08 389.2 128.04 389.2 123.72"/><polygon class="cls-22" points="398.43 119.42 398.43 121.32 390.01 126.26 390.01 126.68 398.73 121.56 398.73 119.24 398.43 119.42"/><polygon class="cls-23" points="398.43 119.42 390.01 124.36 390.01 126.26 398.43 121.32 398.43 119.42"/><polygon class="cls-5" points="375.32 131.6 385.67 125.63 385.67 129.96 375.32 135.92 375.32 131.6"/><polygon class="cls-22" points="384.55 127.3 384.55 129.2 376.13 134.14 376.13 134.55 384.86 129.43 384.86 127.11 384.55 127.3"/><polygon class="cls-23" points="384.55 127.3 376.13 132.24 376.13 134.14 384.55 129.2 384.55 127.3"/><polygon class="cls-24" points="369.35 129.5 457.53 78.69 457.53 80.6 369.35 131.41 369.35 129.5"/><polygon class="cls-22" points="369.35 164.42 457.53 113.61 457.53 115.51 369.35 166.32 369.35 164.42"/><polygon class="cls-23" points="457.53 78.69 369.35 129.5 336.66 92.76 424.84 41.95 457.53 78.69"/><polygon class="cls-25" points="373.31 127.22 372.5 127.69 339.81 90.95 340.62 90.48 373.31 127.22"/><polygon class="cls-25" points="376.87 125.19 376.05 125.64 343.28 88.82 344.09 88.35 376.87 125.19"/><polygon class="cls-25" points="380.33 123.18 379.52 123.64 346.72 86.78 347.53 86.31 380.33 123.18"/><polygon class="cls-25" points="383.88 121.13 383.07 121.6 350.15 84.61 350.96 84.14 383.88 121.13"/><polygon class="cls-25" points="387.38 119.12 386.57 119.58 353.79 82.74 354.6 82.27 387.38 119.12"/><polygon class="cls-25" points="390.93 117.07 390.12 117.53 357.23 80.57 358.04 80.1 390.93 117.07"/><polygon class="cls-25" points="394.4 115.07 393.59 115.54 360.67 78.53 361.48 78.07 394.4 115.07"/><polygon class="cls-25" points="397.95 113.02 397.24 113.43 364.1 76.36 364.91 75.9 397.95 113.02"/><polygon class="cls-25" points="401.44 111 400.63 111.46 367.84 74.62 368.65 74.16 401.44 111"/><polygon class="cls-25" points="404.98 108.95 404.17 109.42 371.28 72.45 372.09 71.99 404.98 108.95"/><polygon class="cls-25" points="408.45 106.95 407.64 107.42 374.72 70.42 375.53 69.95 408.45 106.95"/><polygon class="cls-25" points="412 104.91 411.29 105.32 378.15 68.25 378.96 67.78 412 104.91"/><polygon class="cls-25" points="415.6 102.82 414.79 103.28 382 66.44 382.81 65.98 415.6 102.82"/><polygon class="cls-25" points="419.14 100.77 418.33 101.24 385.44 64.27 386.25 63.81 419.14 100.77"/><polygon class="cls-25" points="422.61 98.77 421.8 99.24 388.88 62.24 389.69 61.77 422.61 98.77"/><polygon class="cls-25" points="426.16 96.73 425.45 97.14 392.32 60.07 393.13 59.6 426.16 96.73"/><polygon class="cls-25" points="429.85 94.63 429.03 95.09 396.25 58.25 397.06 57.79 429.85 94.63"/><polygon class="cls-25" points="433.39 92.58 432.58 93.05 399.69 56.08 400.5 55.62 433.39 92.58"/><polygon class="cls-25" points="436.86 90.58 436.05 91.05 403.13 54.05 403.94 53.58 436.86 90.58"/><polygon class="cls-25" points="440.41 88.54 439.7 88.95 406.56 51.88 407.37 51.41 440.41 88.54"/><polygon class="cls-25" points="444.04 86.44 443.23 86.9 410.44 50.06 411.25 49.6 444.04 86.44"/><polygon class="cls-25" points="447.58 84.39 446.77 84.86 413.88 47.89 414.69 47.43 447.58 84.39"/><polygon class="cls-25" points="451.05 82.39 450.24 82.86 417.32 45.86 418.13 45.39 451.05 82.39"/><polygon class="cls-25" points="454.6 80.35 453.89 80.76 420.75 43.69 421.56 43.22 454.6 80.35"/><polygon class="cls-24" points="392.15 40.94 303.97 91.75 336.66 92.76 424.84 41.95 392.15 40.94"/><polygon class="cls-20" points="307.91 89.49 307.1 89.95 339.79 90.96 340.6 90.5 307.91 89.49"/><polygon class="cls-20" points="311.5 87.42 310.69 87.89 343.38 88.89 344.19 88.43 311.5 87.42"/><polygon class="cls-20" points="314.94 85.44 314.12 85.91 346.81 86.92 347.62 86.45 314.94 85.44"/><polygon class="cls-20" points="318.49 83.39 317.68 83.86 350.37 84.86 351.18 84.4 318.49 83.39"/><polygon class="cls-20" points="322.01 81.36 321.19 81.83 353.88 82.84 354.69 82.37 322.01 81.36"/><polygon class="cls-20" points="325.57 79.31 324.76 79.78 357.45 80.79 358.26 80.32 325.57 79.31"/><polygon class="cls-20" points="329.02 77.33 328.21 77.8 360.9 78.81 361.71 78.34 329.02 77.33"/><polygon class="cls-20" points="332.57 75.27 331.76 75.74 364.45 76.75 365.26 76.28 332.57 75.27"/><polygon class="cls-20" points="336.07 73.25 335.26 73.72 367.95 74.73 368.76 74.26 336.07 73.25"/><polygon class="cls-20" points="339.62 71.21 338.8 71.68 371.49 72.69 372.3 72.22 339.62 71.21"/><polygon class="cls-20" points="343.08 69.21 342.27 69.68 374.96 70.69 375.77 70.22 343.08 69.21"/><polygon class="cls-20" points="346.64 67.17 345.83 67.64 378.52 68.64 379.33 68.18 346.64 67.17"/><polygon class="cls-20" points="350.25 65.09 349.44 65.56 382.13 66.57 382.94 66.1 350.25 65.09"/><polygon class="cls-20" points="353.79 63.04 352.98 63.51 385.67 64.52 386.48 64.05 353.79 63.04"/><polygon class="cls-20" points="357.25 61.05 356.44 61.52 389.13 62.53 389.94 62.06 357.25 61.05"/><polygon class="cls-20" points="360.81 59.01 359.99 59.48 392.68 60.48 393.49 60.02 360.81 59.01"/><polygon class="cls-20" points="364.47 56.89 363.66 57.36 396.35 58.37 397.16 57.9 364.47 56.89"/><polygon class="cls-20" points="368.01 54.85 367.2 55.32 399.89 56.33 400.7 55.86 368.01 54.85"/><polygon class="cls-20" points="371.5 52.84 370.68 53.31 403.37 54.32 404.18 53.85 371.5 52.84"/><polygon class="cls-20" points="375.05 50.8 374.24 51.27 406.93 52.27 407.74 51.81 375.05 50.8"/><polygon class="cls-20" points="378.68 48.71 377.87 49.18 410.56 50.19 411.37 49.72 378.68 48.71"/><polygon class="cls-20" points="382.23 46.66 381.41 47.12 414.1 48.13 414.91 47.67 382.23 46.66"/><polygon class="cls-20" points="385.71 44.65 384.9 45.12 417.59 46.13 418.4 45.66 385.71 44.65"/><polygon class="cls-20" points="389.2 42.65 388.39 43.11 421.08 44.12 421.89 43.66 389.2 42.65"/><polygon class="cls-26" points="369.35 164.42 303.97 126.67 303.97 128.58 310.59 132.4 310.59 131.6 332.95 144.5 332.95 145.31 338.04 148.26 338.7 147.86 360.38 160.38 360.38 161.15 369.35 166.32 369.35 164.42"/><polygon class="cls-6" points="332.93 121 311.25 108.48 311.25 132.02 332.93 144.54 332.93 121"/><polygon class="cls-27" points="332.93 121 311.25 108.48 311.25 109.5 332.93 122.02 332.93 121"/><polygon class="cls-27" points="332.93 123.51 311.25 110.99 311.25 112.01 332.93 124.53 332.93 123.51"/><polygon class="cls-27" points="332.93 126.02 311.25 113.5 311.25 114.52 332.93 127.04 332.93 126.02"/><polygon class="cls-27" points="332.93 128.45 311.25 115.93 311.25 116.95 332.93 129.47 332.93 128.45"/><polygon class="cls-27" points="332.93 130.96 311.25 118.44 311.25 119.47 332.93 131.99 332.93 130.96"/><polygon class="cls-27" points="332.93 133.47 311.25 120.95 311.25 121.98 332.93 134.5 332.93 133.47"/><polygon class="cls-27" points="332.93 135.98 311.25 123.46 311.25 124.49 332.93 137.01 332.93 135.98"/><polygon class="cls-27" points="332.93 138.49 311.25 125.97 311.25 127 332.93 139.52 332.93 138.49"/><polygon class="cls-27" points="332.93 141 311.25 128.48 311.25 129.51 332.93 142.03 332.93 141"/><polygon class="cls-27" points="332.93 143.51 311.25 130.99 311.25 132.02 332.93 144.54 332.93 143.51"/><polygon class="cls-5" points="383.57 89.62 357.85 104.44 348.32 93.73 374.03 78.91 383.57 89.62"/><polygon class="cls-22" points="382.33 89.62 382.57 89.48 373.88 79.7 349.4 93.83 349.6 94.06 373.83 80.07 382.33 89.62"/><polygon class="cls-28" points="382.33 89.62 373.83 80.07 349.6 94.06 358.1 103.61 382.33 89.62"/><polygon class="cls-29" points="356.37 101.66 353.72 98.69 355.98 90.38 360.08 88.01 356.37 101.66"/><polygon class="cls-29" points="364.96 99.65 358.1 103.61 362.76 86.46 366.39 84.36 368.47 86.72 364.96 99.65"/><polygon class="cls-22" points="357.85 104.44 357.61 104.9 383.33 90.08 383.57 89.62 357.85 104.44"/><polygon class="cls-26" points="348.32 93.73 348.08 94.19 357.61 104.9 357.85 104.44 348.32 93.73"/><polygon class="cls-5" points="367.39 98.92 366.86 99.22 357.65 88.83 358.19 88.53 367.39 98.92"/><polygon class="cls-26" points="366.46 98.78 366.11 99 357.61 89.41 357.76 88.95 366.46 98.78"/><polygon class="cls-5" points="376.16 93.87 375.63 94.18 366.43 83.78 366.96 83.48 376.16 93.87"/><polygon class="cls-26" points="375.22 93.72 374.88 93.95 366.39 84.36 366.54 83.91 375.22 93.72"/><polygon class="cls-5" points="417.75 69.94 392.03 84.76 382.5 74.04 408.21 59.22 417.75 69.94"/><polygon class="cls-22" points="416.51 69.94 416.75 69.8 408.06 60.02 383.58 74.15 383.78 74.38 408.01 60.39 416.51 69.94"/><polygon class="cls-28" points="416.51 69.94 408.01 60.39 383.78 74.38 392.28 83.92 416.51 69.94"/><polygon class="cls-29" points="390.55 81.98 387.9 79 390.16 70.69 394.26 68.33 390.55 81.98"/><polygon class="cls-29" points="399.14 79.97 392.28 83.92 396.95 66.78 400.57 64.68 402.65 67.03 399.14 79.97"/><polygon class="cls-22" points="392.03 84.76 391.79 85.22 417.51 70.4 417.75 69.94 392.03 84.76"/><polygon class="cls-26" points="382.5 74.04 382.26 74.5 391.79 85.22 392.03 84.76 382.5 74.04"/><polygon class="cls-5" points="401.57 79.23 401.04 79.54 391.84 69.14 392.37 68.84 401.57 79.23"/><polygon class="cls-26" points="400.64 79.1 400.29 79.31 391.79 69.72 391.95 69.27 400.64 79.1"/><polygon class="cls-5" points="410.35 74.19 409.81 74.5 400.61 64.1 401.15 63.8 410.35 74.19"/><polygon class="cls-26" points="409.41 74.04 409.06 74.27 400.57 64.68 400.72 64.23 409.41 74.04"/><polygon class="cls-6" points="311.24 108.52 310.59 108.14 310.59 132.41 311.24 132.03 311.24 108.52"/><polygon class="cls-6" points="360.38 136.85 338.7 124.33 338.7 147.86 360.38 160.38 360.38 136.85"/><polygon class="cls-27" points="360.38 136.85 338.7 124.33 338.7 125.35 360.38 137.87 360.38 136.85"/><polygon class="cls-27" points="360.38 139.36 338.7 126.84 338.7 127.86 360.38 140.38 360.38 139.36"/><polygon class="cls-27" points="360.38 141.87 338.7 129.35 338.7 130.37 360.38 142.89 360.38 141.87"/><polygon class="cls-27" points="360.38 144.3 338.7 131.78 338.7 132.8 360.38 145.32 360.38 144.3"/><polygon class="cls-27" points="360.38 146.81 338.7 134.29 338.7 135.31 360.38 147.83 360.38 146.81"/><polygon class="cls-27" points="360.38 149.32 338.7 136.8 338.7 137.82 360.38 150.34 360.38 149.32"/><polygon class="cls-27" points="360.38 151.83 338.7 139.31 338.7 140.33 360.38 152.85 360.38 151.83"/><polygon class="cls-27" points="360.38 154.34 338.7 141.82 338.7 142.84 360.38 155.36 360.38 154.34"/><polygon class="cls-27" points="360.38 156.85 338.7 144.33 338.7 145.35 360.38 157.87 360.38 156.85"/><polygon class="cls-27" points="360.38 159.36 338.7 146.84 338.7 147.86 360.38 160.38 360.38 159.36"/><polygon class="cls-6" points="338.69 124.37 338.04 123.98 338.04 148.26 338.69 147.88 338.69 124.37"/><polygon class="cls-4" points="455.49 107.94 449.52 111.39 446.54 109.8 452.5 106.36 455.49 107.94"/><polygon class="cls-30" points="455.49 113.4 449.52 116.85 449.52 111.39 455.49 107.94 455.49 113.4"/><polygon class="cls-3" points="449.52 111.39 446.54 109.8 446.54 115.26 449.52 116.85 449.52 111.39"/><path class="cls-5" d="M454.84,111.05a3.4,3.4,0,0,1-1.44,2.74c-.79.46-1.43,0-1.43-1.08A3.43,3.43,0,0,1,453.4,110C454.2,109.51,454.84,110,454.84,111.05Z"/><path class="cls-6" d="M454.2,111.42a1.92,1.92,0,0,1-.79,1.53c-.44.25-.8,0-.8-.61a1.91,1.91,0,0,1,.8-1.52C453.85,110.56,454.2,110.83,454.2,111.42Z"/><polygon class="cls-4" points="447.85 112.28 441.89 115.73 438.9 114.14 444.87 110.7 447.85 112.28"/><polygon class="cls-30" points="447.85 117.75 441.89 121.19 441.89 115.73 447.85 112.28 447.85 117.75"/><polygon class="cls-3" points="441.89 115.73 438.9 114.14 438.9 119.61 441.89 121.19 441.89 115.73"/><path class="cls-5" d="M447.09,115.4a3.42,3.42,0,0,1-1.43,2.73c-.79.46-1.43,0-1.43-1.08a3.45,3.45,0,0,1,1.43-2.74C446.45,113.86,447.09,114.34,447.09,115.4Z"/><path class="cls-6" d="M446.46,115.76a1.93,1.93,0,0,1-.8,1.53c-.44.25-.8,0-.8-.6a1.91,1.91,0,0,1,.8-1.53C446.1,114.91,446.46,115.18,446.46,115.76Z"/><polygon class="cls-5" points="350.1 129.29 347.38 127.72 349.29 126.62 352 128.19 350.1 129.29"/><polygon class="cls-26" points="347.38 127.72 347.38 128.78 350.1 130.35 350.1 129.29 347.38 127.72"/><polygon class="cls-22" points="352 128.19 352 129.25 350.1 130.35 350.1 129.29 352 128.19"/><polygon class="cls-5" points="322.5 113.16 319.78 111.6 321.69 110.5 324.4 112.06 322.5 113.16"/><polygon class="cls-26" points="319.78 111.6 319.78 112.65 322.5 114.22 322.5 113.16 319.78 111.6"/><polygon class="cls-22" points="324.4 112.06 324.4 113.12 322.5 114.22 322.5 113.16 324.4 112.06"/><polygon class="cls-12" points="376.61 213.7 367.13 208.23 367.13 200.45 376.61 205.92 376.61 213.7"/><polygon class="cls-9" points="376.61 213.7 382.94 210.11 382.94 202.33 376.61 205.92 376.61 213.7"/><polygon class="cls-11" points="382.94 202.33 373.47 196.81 367.13 200.45 376.61 205.92 382.94 202.33"/><polygon class="cls-4" points="380.52 203.7 371.06 198.19 370.23 198.67 379.73 204.15 380.52 203.7"/><polygon class="cls-5" points="374.29 205.81 376.21 206.91 376.21 206.27 374.29 205.17 374.29 205.81"/><polygon class="cls-5" points="374.29 206.37 376.21 207.47 376.21 207.15 374.29 206.05 374.29 206.37"/><polygon class="cls-5" points="374.29 206.92 376.21 208.02 376.21 207.7 374.29 206.6 374.29 206.92"/><polygon class="cls-4" points="374.29 208.88 376.21 209.99 376.21 208.31 374.29 207.21 374.29 208.88"/><polygon class="cls-6" points="380.52 203.69 379.73 204.15 379.73 205.96 380.52 205.51 380.52 203.69"/><path class="cls-5" d="M369.45,208.77a.11.11,0,0,1,0,.09.19.19,0,0,1-.14-.16.07.07,0,0,0-.14,0,.33.33,0,0,0,.28.3.17.17,0,0,0,.13-.07.34.34,0,0,0,0-.16v-1.06l.61.35a1.64,1.64,0,0,0-.68-1.29c-.38-.22-.68,0-.68.51l.61.35Z"/><path class="cls-5" d="M367.33,208.1l1.22.7V206l-1.22-.7Zm.07-2.67,1.08.63v2.63l-1.08-.63Z"/><path class="cls-5" d="M368.71,206.1v2.78l1.66,1v-2.78Zm1.6,3.63-1.54-.89v-2.63l1.54.88Z"/><path class="cls-5" d="M367.56,206.74a1,1,0,0,0,.29.67v.49l-.19-.11c-.05,0-.1,0-.1.08a.26.26,0,0,0,.1.19l.58.33c.05,0,.1,0,.1-.07a.24.24,0,0,0-.1-.19l-.19-.11v-.49c.16,0,.29-.1.29-.34v-1.05l-.78-.45Z"/><polygon class="cls-12" points="364.18 217.64 356.11 212.98 356.11 206.36 364.18 211.02 364.18 217.64"/><polygon class="cls-9" points="364.18 217.64 372.09 213.13 372.09 206.51 364.18 211.02 364.18 217.64"/><polygon class="cls-11" points="372.09 206.51 364.02 201.82 356.11 206.36 364.18 211.02 372.09 206.51"/><polygon class="cls-4" points="368.69 208.46 360.63 203.77 359.93 204.17 368.01 208.84 368.69 208.46"/><polygon class="cls-5" points="362.21 210.93 363.84 211.86 363.84 211.32 362.21 210.38 362.21 210.93"/><polygon class="cls-5" points="362.21 211.4 363.84 212.34 363.84 212.06 362.21 211.13 362.21 211.4"/><polygon class="cls-5" points="362.21 211.87 363.84 212.8 363.84 212.53 362.21 211.59 362.21 211.87"/><polygon class="cls-4" points="362.21 213.54 363.84 214.48 363.84 213.05 362.21 212.11 362.21 213.54"/><polygon class="cls-6" points="368.68 208.45 368.01 208.83 368.01 210.38 368.68 209.99 368.68 208.45"/><path class="cls-5" d="M358.09,213.44c0,.05,0,.07,0,.08a.18.18,0,0,1-.12-.14.06.06,0,0,0-.06-.06.06.06,0,0,0-.06.06.28.28,0,0,0,.24.25.13.13,0,0,0,.11,0,.26.26,0,0,0,0-.14v-.9l.52.3a1.38,1.38,0,0,0-.57-1.1c-.32-.19-.58,0-.58.43l.52.3Z"/><path class="cls-5" d="M356.28,212.87l1,.6V211.1l-1-.6Zm.06-2.27.92.53v2.25l-.92-.54Z"/><path class="cls-5" d="M357.45,211.17v2.37l1.42.81V212Zm1.37,3.09-1.31-.75v-2.25l1.31.76Z"/><path class="cls-5" d="M356.48,211.72a.82.82,0,0,0,.24.56v.42l-.16-.09s-.08,0-.08.07a.23.23,0,0,0,.08.16l.49.28c.05,0,.09,0,.09-.06a.21.21,0,0,0-.09-.17l-.15-.09v-.42c.14,0,.24-.08.24-.28v-.9l-.66-.38Z"/><polygon class="cls-12" points="375.83 203.98 379.25 202 379.25 197.38 375.83 199.36 375.83 203.98"/><polygon class="cls-10" points="375.83 203.98 369.75 200.49 369.75 195.86 375.83 199.36 375.83 203.98"/><polygon class="cls-11" points="369.75 195.86 373.17 193.86 379.25 197.38 375.83 199.36 369.75 195.86"/><polygon class="cls-4" points="377.95 198.16 371.88 194.61 371.13 195.05 377.22 198.57 377.95 198.16"/><polygon class="cls-5" points="374.4 199.23 375.54 199.88 375.54 199.5 374.4 198.85 374.4 199.23"/><polygon class="cls-5" points="374.4 199.56 375.54 200.21 375.54 200.02 374.4 199.37 374.4 199.56"/><polygon class="cls-5" points="374.4 199.88 375.54 200.54 375.54 200.35 374.4 199.69 374.4 199.88"/><polygon class="cls-4" points="374.4 201.05 375.54 201.71 375.54 200.71 374.4 200.06 374.4 201.05"/><polygon class="cls-6" points="377.94 198.15 377.22 198.56 377.22 200.22 377.94 199.81 377.94 198.15"/><path class="cls-5" d="M371.56,200.91a.08.08,0,0,1,0,.06.13.13,0,0,1-.1-.12.06.06,0,0,0-.05,0,.05.05,0,0,0-.05,0,.23.23,0,0,0,.2.22.12.12,0,0,0,.09,0,.18.18,0,0,0,0-.11v-.76l.43.25a1.15,1.15,0,0,0-.48-.92c-.27-.16-.49,0-.49.36l.44.25Z"/><path class="cls-5" d="M370.05,200.43l.86.5v-2l-.86-.5Zm0-1.91.78.45v1.88l-.78-.45Z"/><path class="cls-5" d="M371,199v2l1.19.68v-2Zm1.14,2.59-1.1-.63v-1.88l1.1.63Z"/><path class="cls-5" d="M370.21,199.46a.72.72,0,0,0,.2.47v.36l-.13-.08s-.07,0-.07,0a.16.16,0,0,0,.07.14l.41.24s.07,0,.07-.06a.16.16,0,0,0-.07-.13l-.13-.08V200c.12,0,.2-.07.2-.24V199l-.55-.32Z"/><polygon class="cls-3" points="381.13 224.5 373.52 220.1 373.52 213.86 381.13 218.25 381.13 224.5"/><polygon class="cls-4" points="375.42 216.82 373.86 215.92 373.86 214.64 375.42 215.54 375.42 216.82"/><polygon class="cls-5" points="375.42 217.39 373.86 216.49 373.86 216.26 375.42 217.16 375.42 217.39"/><polygon class="cls-5" points="375.42 217.76 373.86 216.86 373.86 216.63 375.42 217.53 375.42 217.76"/><polygon class="cls-5" points="375.42 218.17 373.86 217.27 373.86 217.04 375.42 217.94 375.42 218.17"/><polygon class="cls-5" points="379.26 220.36 379.26 220.59 380.65 221.39 380.65 221.16 379.26 220.36"/><polygon class="cls-6" points="381.13 224.5 388.73 220.1 388.73 213.86 381.13 218.25 381.13 224.5"/><polygon class="cls-7" points="385.49 215.73 384.37 216.38 384.37 218.93 385.49 218.28 385.49 215.73"/><polygon class="cls-4" points="388.73 213.86 381.13 209.43 373.52 213.86 381.13 218.25 388.73 213.86"/><polygon class="cls-8" points="385.51 215.73 377.9 211.3 376.74 211.99 384.35 216.38 385.51 215.73"/><path class="cls-5" d="M379.86,223s0,.07,0,.08a.18.18,0,0,1-.12-.14.06.06,0,0,0-.12,0,.29.29,0,0,0,.24.26.14.14,0,0,0,.11-.06.26.26,0,0,0,0-.14v-.91l.52.3a1.38,1.38,0,0,0-.58-1.1c-.32-.18-.58,0-.58.44l.52.3Z"/><path class="cls-5" d="M378.05,222.42l1,.6v-2.38l-1-.6Zm.06-2.28.93.53v2.26l-.93-.54Z"/><path class="cls-5" d="M379.23,220.71v2.38l1.42.82v-2.38Zm1.37,3.1-1.32-.75V220.8l1.32.76Z"/><path class="cls-5" d="M378.25,221.26a.85.85,0,0,0,.24.57v.42l-.15-.09s-.09,0-.09.06a.21.21,0,0,0,.09.17l.49.28s.08,0,.08-.06a.23.23,0,0,0-.08-.17l-.16-.09v-.42c.14,0,.24-.08.24-.29v-.9l-.66-.38Z"/><polygon class="cls-9" points="331.82 219.61 340.88 214.38 340.88 206.95 331.82 212.18 331.82 219.61"/><polygon class="cls-10" points="331.82 219.61 325.77 216.18 325.77 208.74 331.82 212.18 331.82 219.61"/><polygon class="cls-11" points="325.77 208.74 334.82 203.47 340.88 206.95 331.82 212.18 325.77 208.74"/><polygon class="cls-4" points="328.08 210.05 337.12 204.79 337.92 205.25 328.84 210.49 328.08 210.05"/><polygon class="cls-5" points="334.04 212.07 332.2 213.13 332.2 212.51 334.04 211.46 334.04 212.07"/><polygon class="cls-5" points="334.04 212.6 332.2 213.66 332.2 213.35 334.04 212.3 334.04 212.6"/><polygon class="cls-5" points="334.04 213.13 332.2 214.18 332.2 213.87 334.04 212.82 334.04 213.13"/><polygon class="cls-4" points="334.04 215.01 332.2 216.06 332.2 214.46 334.04 213.41 334.04 215.01"/><polygon class="cls-6" points="328.09 210.04 328.84 210.48 328.84 212.22 328.09 211.78 328.09 210.04"/><path class="cls-5" d="M338.66,214.9s0,.07,0,.08a.17.17,0,0,0,.13-.15.07.07,0,0,1,.14,0,.31.31,0,0,1-.27.28.14.14,0,0,1-.12-.06.22.22,0,0,1,0-.15v-1l-.58.34a1.55,1.55,0,0,1,.65-1.24c.35-.2.64,0,.64.49l-.58.34Z"/><path class="cls-5" d="M340.69,214.26l-1.17.67v-2.66l1.17-.67Zm-.07-2.55-1,.6v2.51l1-.6Z"/><path class="cls-5" d="M339.37,212.35V215l-1.59.91v-2.66Zm-1.53,3.46,1.47-.84v-2.52l-1.47.85Z"/><path class="cls-5" d="M340.47,213a.94.94,0,0,1-.28.64v.47l.18-.1c.05,0,.1,0,.1.07a.24.24,0,0,1-.1.18l-.55.32c-.05,0-.1,0-.1-.07a.26.26,0,0,1,.1-.19l.18-.1v-.47c-.16,0-.28-.09-.28-.32v-1l.75-.43Z"/><polygon class="cls-12" points="337.37 210.68 340.79 208.7 340.79 204.08 337.37 206.06 337.37 210.68"/><polygon class="cls-10" points="337.37 210.68 331.28 207.19 331.28 202.57 337.37 206.06 337.37 210.68"/><polygon class="cls-11" points="331.28 202.57 334.7 200.56 340.79 204.08 337.37 206.06 331.28 202.57"/><polygon class="cls-4" points="339.48 204.86 333.42 201.31 332.67 201.75 338.75 205.27 339.48 204.86"/><polygon class="cls-5" points="335.93 205.93 337.07 206.59 337.07 206.2 335.93 205.55 335.93 205.93"/><polygon class="cls-5" points="335.93 206.26 337.07 206.91 337.07 206.72 335.93 206.07 335.93 206.26"/><polygon class="cls-5" points="335.93 206.59 337.07 207.24 337.07 207.05 335.93 206.4 335.93 206.59"/><polygon class="cls-4" points="335.93 207.76 337.07 208.41 337.07 207.41 335.93 206.76 335.93 207.76"/><polygon class="cls-6" points="339.48 204.85 338.75 205.26 338.75 206.93 339.48 206.51 339.48 204.85"/><path class="cls-5" d="M333.09,207.61s0,0,0,.06a.14.14,0,0,1-.1-.11.05.05,0,0,0-.1,0,.23.23,0,0,0,.2.21.11.11,0,0,0,.09-.05.16.16,0,0,0,0-.11v-.76l.44.25a1.18,1.18,0,0,0-.49-.92c-.27-.16-.48,0-.48.36l.43.25Z"/><path class="cls-5" d="M331.58,207.13l.87.5v-2l-.87-.5Zm.05-1.9.77.44v1.88l-.77-.44Z"/><path class="cls-5" d="M332.56,205.7v2l1.19.68v-2Zm1.14,2.59-1.09-.63v-1.88l1.09.63Z"/><path class="cls-5" d="M331.74,206.16a.71.71,0,0,0,.21.48V207l-.13-.08s-.08,0-.08.06a.17.17,0,0,0,.08.13l.41.24s.07,0,.07-.05a.16.16,0,0,0-.07-.14l-.14-.08v-.35c.12,0,.21-.07.21-.24v-.75l-.56-.32Z"/><polygon class="cls-3" points="343.76 225.38 336.15 220.98 336.15 214.74 343.76 219.13 343.76 225.38"/><polygon class="cls-4" points="338.06 217.7 336.5 216.8 336.5 215.52 338.06 216.42 338.06 217.7"/><polygon class="cls-5" points="338.06 218.27 336.5 217.37 336.5 217.14 338.06 218.04 338.06 218.27"/><polygon class="cls-5" points="338.06 218.64 336.5 217.74 336.5 217.51 338.06 218.41 338.06 218.64"/><polygon class="cls-5" points="338.06 219.05 336.5 218.15 336.5 217.92 338.06 218.82 338.06 219.05"/><polygon class="cls-5" points="341.9 221.24 341.9 221.47 343.29 222.27 343.29 222.04 341.9 221.24"/><polygon class="cls-6" points="343.76 225.38 351.37 220.98 351.37 214.74 343.76 219.13 343.76 225.38"/><polygon class="cls-7" points="348.13 216.61 347 217.26 347 219.81 348.13 219.16 348.13 216.61"/><polygon class="cls-4" points="351.37 214.74 343.76 210.31 336.15 214.74 343.76 219.13 351.37 214.74"/><polygon class="cls-8" points="348.15 216.61 340.54 212.18 339.38 212.87 346.99 217.26 348.15 216.61"/><path class="cls-5" d="M342.5,223.87s0,.07,0,.08a.18.18,0,0,1-.12-.14.06.06,0,0,0-.06-.06.06.06,0,0,0-.06.06.27.27,0,0,0,.24.25.16.16,0,0,0,.11-.05.26.26,0,0,0,0-.14V223l.52.3a1.38,1.38,0,0,0-.58-1.1c-.32-.19-.58,0-.58.44l.52.3Z"/><path class="cls-5" d="M340.69,223.3l1,.6v-2.38l-1-.6Zm.06-2.28.93.53v2.25l-.93-.53Z"/><path class="cls-5" d="M341.87,221.59V224l1.42.82v-2.38Zm1.36,3.1-1.31-.76v-2.25l1.31.76Z"/><path class="cls-5" d="M340.89,222.14a.85.85,0,0,0,.24.57v.42L341,223s-.08,0-.08.06a.23.23,0,0,0,.08.17l.49.28c.05,0,.09,0,.09-.06a.21.21,0,0,0-.09-.17l-.15-.09v-.42c.14,0,.24-.08.24-.29v-.9l-.66-.38Z"/><path class="cls-31" d="M276.39,204.13a15.06,15.06,0,0,1-7.34-1.84l-22-12.68,2-3.52,22,12.68c2.66,1.53,6.94,1.75,9.17.46l17-9.82,4,2.36-19,11A11.93,11.93,0,0,1,276.39,204.13Z"/><path class="cls-32" d="M224,179.86l3.22-2s-.73-1.65-.77-1.65-1.27-.76-1.8-.48a1.83,1.83,0,0,0-.84,1.63A19.28,19.28,0,0,0,224,179.86Z"/><path class="cls-22" d="M231.85,181.46a6.57,6.57,0,0,0-2.73-5.22,3.85,3.85,0,0,0-1.55-.34,4.46,4.46,0,0,0-2,1,2.48,2.48,0,0,0-.9,1.61l3.07,6.3a1.57,1.57,0,0,0,1.46.06,6.8,6.8,0,0,0,1.25-.71,2.89,2.89,0,0,0,1-1,3.22,3.22,0,0,0,.4-1.67Z"/><path class="cls-5" d="M224.53,179.38a6.52,6.52,0,0,0,2.73,5.21c1.5.87,2.73-.05,2.73-2.06a6.57,6.57,0,0,0-2.73-5.22C225.75,176.44,224.53,177.37,224.53,179.38Z"/><path class="cls-22" d="M225,179.74a5.16,5.16,0,0,0,2.15,4.11c1.18.68,2.15,0,2.15-1.63a5.15,5.15,0,0,0-2.15-4.1C226,177.43,225,178.16,225,179.74Z"/><path class="cls-4" d="M225.63,180a3.9,3.9,0,0,0,1.63,3.11c.89.51,1.62,0,1.62-1.23a3.88,3.88,0,0,0-1.62-3.1C226.36,178.3,225.63,178.85,225.63,180Z"/><path class="cls-4" d="M227.2,179.07a3.47,3.47,0,0,1,1.46,2.78c0,1.07-.65,1.57-1.46,1.1a3.49,3.49,0,0,1-1.46-2.78C225.74,179.09,226.4,178.6,227.2,179.07Zm.32.36a1.45,1.45,0,0,0-.31-.25.83.83,0,0,0-.54-.14.24.24,0,0,0-.15.07c-.05,0,0,.11,0,.21l.18.32c0,.05.06,0,.13,0a.58.58,0,0,1,.19,0,1.32,1.32,0,0,1,.33.2s.07,0,.09,0a.89.89,0,0,0,.11-.26A.21.21,0,0,0,227.52,179.43Zm-1.1,1.13a1.84,1.84,0,0,0,.78,1.48c.43.25.78,0,.78-.58a1.88,1.88,0,0,0-.78-1.49C226.77,179.73,226.42,180,226.42,180.56Zm2,.45a2.73,2.73,0,0,0-.31-.79,1.88,1.88,0,0,0-.25-.39c-.07-.06-.11,0-.13,0a.89.89,0,0,0-.09.29.18.18,0,0,0,0,.15,2.71,2.71,0,0,1,.23.43,1.63,1.63,0,0,1,.1.29c0,.11,0,.15.07.18l.25.16c.07,0,.11,0,.11-.07A.9.9,0,0,0,228.45,181Zm-.33,1.85s.15-.1.21-.2a.93.93,0,0,0,.19-.58.8.8,0,0,0,0-.27c0-.1-.06-.14-.13-.16a.94.94,0,0,0-.24-.06s0,0,0,.13a.94.94,0,0,1-.06.23.83.83,0,0,1-.18.26.12.12,0,0,0,0,.12,2.62,2.62,0,0,0,.15.39C228,182.8,228.06,182.86,228.12,182.86Zm-1.34-.42a1.12,1.12,0,0,0,.18.21,1,1,0,0,0,.55.31.51.51,0,0,0,.29,0s0-.11,0-.19a2.71,2.71,0,0,0-.17-.39c0-.05,0-.08-.09-.08a.75.75,0,0,1-.32-.08,1.32,1.32,0,0,1-.2-.13c-.07-.05-.1-.1-.13-.07a1.33,1.33,0,0,0-.14.19C226.72,182.29,226.72,182.34,226.78,182.44Zm-.82-1.32a2.88,2.88,0,0,0,.36.77,1,1,0,0,0,.17.21c.07.06.11.05.13,0a2.11,2.11,0,0,0,.06-.29c0-.05,0-.07-.08-.17s-.11-.2-.14-.28a3.31,3.31,0,0,1-.14-.47.16.16,0,0,0-.07-.12,1,1,0,0,0-.28-.15c-.05,0-.1,0-.1.08A1.91,1.91,0,0,0,226,181.12Zm0-.74a.92.92,0,0,0,.27.08s0,0,.06-.07a1.37,1.37,0,0,1,.06-.39.81.81,0,0,1,.1-.18c0-.06.07-.06,0-.12s-.08-.26-.12-.36-.07-.15-.14-.14a.22.22,0,0,0-.15.08.87.87,0,0,0-.24.53,2,2,0,0,0,0,.4C225.87,180.31,225.91,180.36,226,180.38Z"/><path class="cls-6" d="M227.12,180.27a1.5,1.5,0,0,1,.63,1.21c0,.46-.28.68-.63.47a1.5,1.5,0,0,1-.63-1.2C226.49,180.28,226.77,180.07,227.12,180.27Z"/><path class="cls-5" d="M228.36,181.35l-.25-.16s0-.07-.07-.18a1.63,1.63,0,0,0-.1-.29,2.71,2.71,0,0,0-.23-.43.18.18,0,0,1,0-.15.89.89,0,0,1,.09-.29c0-.06.06-.08.13,0a1.88,1.88,0,0,1,.25.39,2.73,2.73,0,0,1,.31.79.9.9,0,0,1,0,.27C228.47,181.37,228.43,181.39,228.36,181.35Z"/><path class="cls-5" d="M227.45,179.9s0,0-.09,0a1.32,1.32,0,0,0-.33-.2.58.58,0,0,0-.19,0c-.07,0-.09,0-.13,0l-.18-.32c-.05-.1-.06-.16,0-.21a.24.24,0,0,1,.15-.07.83.83,0,0,1,.54.14,1.45,1.45,0,0,1,.31.25.21.21,0,0,1,0,.21A.89.89,0,0,1,227.45,179.9Z"/><path class="cls-5" d="M225.86,179.81a.87.87,0,0,1,.24-.53.22.22,0,0,1,.15-.08c.07,0,.1,0,.14.14s.09.25.12.36,0,.06,0,.12a.81.81,0,0,0-.1.18,1.37,1.37,0,0,0-.06.39c0,.06,0,.07-.06.07a.92.92,0,0,1-.27-.08c-.06,0-.1-.07-.13-.17A2,2,0,0,1,225.86,179.81Z"/><path class="cls-5" d="M226,180.59a1,1,0,0,1,.28.15.16.16,0,0,1,.07.12,3.31,3.31,0,0,0,.14.47c0,.08.09.18.14.28s.09.12.08.17a2.11,2.11,0,0,1-.06.29c0,.08-.06.09-.13,0a1,1,0,0,1-.17-.21,2.88,2.88,0,0,1-.36-.77,1.91,1.91,0,0,1-.09-.45C225.87,180.58,225.92,180.57,226,180.59Z"/><path class="cls-5" d="M226.9,182s.06,0,.13.07a1.32,1.32,0,0,0,.2.13.75.75,0,0,0,.32.08s.07,0,.09.08a2.71,2.71,0,0,1,.17.39c0,.08,0,.15,0,.19a.51.51,0,0,1-.29,0,1,1,0,0,1-.55-.31,1.12,1.12,0,0,1-.18-.21c-.06-.1-.06-.15,0-.21A1.33,1.33,0,0,1,226.9,182Z"/><path class="cls-5" d="M227.85,182.21A.83.83,0,0,0,228,182a.94.94,0,0,0,.06-.23c0-.08,0-.13,0-.13a.94.94,0,0,1,.24.06c.07,0,.11.06.13.16a.8.8,0,0,1,0,.27.93.93,0,0,1-.19.58c-.06.1-.17.2-.21.2s-.11-.06-.14-.14a2.62,2.62,0,0,1-.15-.39A.12.12,0,0,1,227.85,182.21Z"/><path class="cls-22" d="M237.74,184.91A6.55,6.55,0,0,0,235,179.7a4,4,0,0,0-1.55-.35,4.46,4.46,0,0,0-2.05,1,2.49,2.49,0,0,0-.9,1.62l3.07,6.29a1.59,1.59,0,0,0,1.46.07,8.7,8.7,0,0,0,1.25-.71,3,3,0,0,0,1.05-1,3.22,3.22,0,0,0,.4-1.67Z"/><path class="cls-5" d="M230.42,182.83a6.52,6.52,0,0,0,2.73,5.21c1.5.87,2.73,0,2.73-2.06a6.55,6.55,0,0,0-2.73-5.21C231.64,179.9,230.42,180.82,230.42,182.83Z"/><path class="cls-22" d="M230.93,183.19a5.16,5.16,0,0,0,2.15,4.11c1.18.68,2.15,0,2.15-1.63a5.15,5.15,0,0,0-2.15-4.1C231.89,180.88,230.93,181.61,230.93,183.19Z"/><path class="cls-4" d="M231.52,183.5a3.89,3.89,0,0,0,1.63,3.1c.89.51,1.62,0,1.62-1.23a3.91,3.91,0,0,0-1.62-3.1C232.25,181.75,231.52,182.3,231.52,183.5Z"/><path class="cls-4" d="M233.09,182.52a3.47,3.47,0,0,1,1.46,2.78c0,1.08-.65,1.57-1.46,1.1a3.49,3.49,0,0,1-1.46-2.78C231.63,182.55,232.29,182.05,233.09,182.52Zm.32.36a1.45,1.45,0,0,0-.31-.24.83.83,0,0,0-.54-.15.24.24,0,0,0-.15.07c0,.05,0,.11,0,.21s.12.23.18.32.06,0,.13,0a.58.58,0,0,1,.19,0,1.52,1.52,0,0,1,.33.2s.07,0,.08,0a.74.74,0,0,0,.12-.27A.21.21,0,0,0,233.41,182.88Zm-1.1,1.13a1.88,1.88,0,0,0,.78,1.49c.43.24.78,0,.78-.59a1.84,1.84,0,0,0-.78-1.48C232.66,183.18,232.31,183.44,232.31,184Zm2,.45a2.73,2.73,0,0,0-.31-.79,2.22,2.22,0,0,0-.25-.39c-.07-.06-.11,0-.13,0a1,1,0,0,0-.09.3.2.2,0,0,0,0,.14,2.06,2.06,0,0,1,.24.43,1.63,1.63,0,0,1,.1.29c0,.11,0,.15.07.18a1.48,1.48,0,0,0,.25.16c.07,0,.11,0,.11-.07A.9.9,0,0,0,234.34,184.46Zm-.33,1.85s.15-.1.21-.19a1,1,0,0,0,.19-.58.78.78,0,0,0,0-.27c0-.11-.06-.15-.13-.17a.93.93,0,0,0-.24,0s0,0,0,.13a1.09,1.09,0,0,1-.06.23.9.9,0,0,1-.18.25.12.12,0,0,0,0,.12,3.25,3.25,0,0,0,.15.4C233.9,186.25,234,186.31,234,186.31Zm-1.34-.42a1.12,1.12,0,0,0,.18.21,1,1,0,0,0,.55.31.51.51,0,0,0,.29,0c.05,0,0-.11,0-.19a2.71,2.71,0,0,0-.17-.39s-.05-.08-.09-.08a.88.88,0,0,1-.32-.07l-.2-.14c-.08-.05-.1-.09-.13-.07a1.33,1.33,0,0,0-.14.19C232.61,185.74,232.61,185.8,232.67,185.89Zm-.82-1.32a2.75,2.75,0,0,0,.36.77,1,1,0,0,0,.17.21c.07.06.11,0,.13,0a2,2,0,0,0,.06-.28c0-.05,0-.08-.08-.18a2.43,2.43,0,0,1-.14-.28,3.31,3.31,0,0,1-.14-.47.16.16,0,0,0-.07-.12,1,1,0,0,0-.28-.15c-.06,0-.1,0-.11.08A3,3,0,0,0,231.85,184.57Zm0-.74a.92.92,0,0,0,.27.08s.05,0,.05-.07a2.16,2.16,0,0,1,.07-.39,1.12,1.12,0,0,1,.1-.18c0-.06.07-.06.05-.12a2.86,2.86,0,0,0-.12-.35c0-.11-.08-.15-.14-.15a.22.22,0,0,0-.15.08.87.87,0,0,0-.24.53,1.45,1.45,0,0,0,0,.4C231.76,183.76,231.8,183.81,231.86,183.83Z"/><path class="cls-6" d="M233,183.72a1.5,1.5,0,0,1,.63,1.21c0,.46-.28.68-.63.48a1.52,1.52,0,0,1-.63-1.21C232.38,183.73,232.66,183.52,233,183.72Z"/><path class="cls-5" d="M234.25,184.8a1.48,1.48,0,0,1-.25-.16s0-.07-.07-.18a1.63,1.63,0,0,0-.1-.29,2.06,2.06,0,0,0-.24-.43.2.2,0,0,1,0-.14,1,1,0,0,1,.09-.3c0-.05.06-.08.13,0a2.22,2.22,0,0,1,.25.39,2.73,2.73,0,0,1,.31.79.9.9,0,0,1,0,.27C234.36,184.83,234.32,184.84,234.25,184.8Z"/><path class="cls-5" d="M233.33,183.36s0,0-.08,0a1.52,1.52,0,0,0-.33-.2.58.58,0,0,0-.19,0c-.07,0-.09,0-.13,0s-.13-.23-.18-.32-.06-.16,0-.21a.24.24,0,0,1,.15-.07.83.83,0,0,1,.54.15,1.45,1.45,0,0,1,.31.24.21.21,0,0,1,0,.21A.74.74,0,0,1,233.33,183.36Z"/><path class="cls-5" d="M231.75,183.26a.87.87,0,0,1,.24-.53.22.22,0,0,1,.15-.08c.06,0,.1,0,.14.15a2.86,2.86,0,0,1,.12.35c0,.06,0,.06-.05.12a1.12,1.12,0,0,0-.1.18,2.16,2.16,0,0,0-.07.39c0,.06,0,.07-.05.07a.92.92,0,0,1-.27-.08c-.06,0-.1-.07-.13-.17A1.45,1.45,0,0,1,231.75,183.26Z"/><path class="cls-5" d="M231.86,184a1,1,0,0,1,.28.15.16.16,0,0,1,.07.12,3.31,3.31,0,0,0,.14.47,2.43,2.43,0,0,0,.14.28c.06.1.09.13.08.18a2,2,0,0,1-.06.28c0,.08-.06.09-.13,0a1,1,0,0,1-.17-.21,2.75,2.75,0,0,1-.36-.77,3,3,0,0,1-.1-.45C231.76,184,231.8,184,231.86,184Z"/><path class="cls-5" d="M232.79,185.49s.05,0,.13.07l.2.14a.88.88,0,0,0,.32.07s.07,0,.09.08a2.71,2.71,0,0,1,.17.39c0,.08,0,.15,0,.19a.51.51,0,0,1-.29,0,1,1,0,0,1-.55-.31,1.12,1.12,0,0,1-.18-.21c-.06-.09-.06-.15,0-.21A1.33,1.33,0,0,1,232.79,185.49Z"/><path class="cls-5" d="M233.74,185.66a.9.9,0,0,0,.18-.25,1.09,1.09,0,0,0,.06-.23c0-.09,0-.14,0-.13a.93.93,0,0,1,.24,0c.07,0,.11.06.13.17a.78.78,0,0,1,0,.27,1,1,0,0,1-.19.58c-.06.09-.17.19-.21.19s-.11-.06-.14-.13a3.25,3.25,0,0,1-.15-.4A.12.12,0,0,1,233.74,185.66Z"/><path class="cls-6" d="M239.89,183.25a4.71,4.71,0,0,0-2-3.76l-3.43-2h0L228.42,174a1.22,1.22,0,0,0-1.39,0h0l-2.75,1.61a1.32,1.32,0,0,1,1.08.12c.15.07.55.28,1.09.59l.31.17c2.45,1.39,7.16,4.18,7.78,4.49a4.85,4.85,0,0,1,2.13,2.33,24.62,24.62,0,0,1,.44,4.16l2.78-1.62Z"/><path class="cls-6" d="M224.28,175.58a.16.16,0,0,0-.08,0Z"/><path class="cls-4" d="M235.14,181.1l-3.42-2h0l-6.08-3.51c-1.09-.63-2,0-2,1.48v2.58l.3.18v-2.58c0-1.22.75-1.79,1.67-1.26l7.53,4.35h0l2,1.13a4,4,0,0,1,1.67,3.19v2.57l.3.18v-2.58A4.71,4.71,0,0,0,235.14,181.1Z"/><polygon class="cls-22" points="237.56 183.41 243.53 179.98 247.05 184.86 241.03 188.33 237.56 183.41"/><path class="cls-22" d="M244.06,183.39l2.51,1.45c.4.24.73,0,.73-.55v-1.45a1.76,1.76,0,0,0-.73-1.4L244.06,180c-.41-.24-.74,0-.74.55V182A1.74,1.74,0,0,0,244.06,183.39Z"/><path class="cls-5" d="M238.08,186.82l2.51,1.45c.4.24.73,0,.73-.55v-1.45a1.76,1.76,0,0,0-.73-1.4l-2.51-1.46c-.41-.23-.74,0-.74.56v1.45A1.74,1.74,0,0,0,238.08,186.82Z"/><path class="cls-22" d="M238.4,186.57l1.86,1.07c.3.17.54,0,.54-.41v-1.07a1.3,1.3,0,0,0-.54-1l-1.86-1.07c-.29-.17-.54,0-.54.41v1.07A1.34,1.34,0,0,0,238.4,186.57Z"/><polygon class="cls-22" points="241.87 185.83 247.85 182.4 251.36 187.28 245.35 190.75 241.87 185.83"/><path class="cls-22" d="M248.37,185.81l2.52,1.46c.4.23.73,0,.73-.56v-1.45a1.76,1.76,0,0,0-.73-1.4l-2.52-1.45c-.4-.23-.73,0-.73.55v1.45A1.76,1.76,0,0,0,248.37,185.81Z"/><path class="cls-5" d="M242.39,189.24l2.52,1.46c.4.23.73,0,.73-.56v-1.45a1.76,1.76,0,0,0-.73-1.4l-2.52-1.45c-.4-.24-.73,0-.73.55v1.45A1.76,1.76,0,0,0,242.39,189.24Z"/><path class="cls-22" d="M242.72,189l1.86,1.07c.29.17.54,0,.54-.41v-1.07a1.31,1.31,0,0,0-.54-1l-1.86-1.08c-.3-.17-.54,0-.54.41V188A1.3,1.3,0,0,0,242.72,189Z"/><polygon class="cls-22" points="246.2 188.31 252.18 184.88 255.69 189.76 249.68 193.23 246.2 188.31"/><path class="cls-22" d="M252.7,188.29l2.52,1.45c.4.24.73,0,.73-.55v-1.45a1.76,1.76,0,0,0-.73-1.4l-2.52-1.45c-.4-.24-.73,0-.73.55v1.45A1.76,1.76,0,0,0,252.7,188.29Z"/><path class="cls-5" d="M246.72,191.72l2.52,1.45c.4.24.73,0,.73-.55v-1.45a1.76,1.76,0,0,0-.73-1.4l-2.52-1.46c-.4-.23-.73,0-.73.56v1.45A1.76,1.76,0,0,0,246.72,191.72Z"/><path class="cls-22" d="M247.05,191.47l1.86,1.07c.3.17.54,0,.54-.41v-1.07a1.3,1.3,0,0,0-.54-1L247.05,189c-.3-.17-.54,0-.54.41v1.07A1.31,1.31,0,0,0,247.05,191.47Z"/><polygon class="cls-33" points="248.19 188.14 260.32 181.13 234.2 166.09 222.07 173.1 248.19 188.14"/><polygon class="cls-19" points="248.19 187.6 260.32 180.6 234.2 165.55 222.07 172.56 248.19 187.6"/><polygon class="cls-7" points="248.19 187.6 248.19 188.14 222.07 173.1 222.07 172.56 248.19 187.6"/><polygon class="cls-5" points="249.34 186.97 250.47 186.33 224.35 171.25 223.23 171.89 249.34 186.97"/><polygon class="cls-5" points="258.49 181.7 259.61 181.05 233.49 165.97 232.37 166.62 258.49 181.7"/><polygon class="cls-24" points="248.18 170.71 260.49 163.56 260.49 180.16 248.18 187.31 248.18 170.71"/><polygon class="cls-23" points="234.21 148.38 221.9 155.54 248.18 170.71 260.49 163.56 234.21 148.38"/><polygon class="cls-25" points="221.9 155.54 221.9 172.15 248.18 187.31 248.18 170.71 221.9 155.54"/><polygon class="cls-15" points="221.9 169.33 221.9 170.97 248.18 186.14 248.18 184.5 221.9 169.33"/><polygon class="cls-15" points="221.9 155.54 221.9 157.18 248.18 172.35 248.18 170.71 221.9 155.54"/><polygon class="cls-13" points="248.18 170.71 260.49 163.56 260.49 165.19 248.18 172.35 248.18 170.71"/><polygon class="cls-23" points="262.19 178.49 250.61 185.4 248.24 184.04 259.82 177.13 262.19 178.49"/><polygon class="cls-24" points="262.19 182.61 250.61 189.53 250.61 185.4 262.19 178.49 262.19 182.61"/><polygon class="cls-25" points="250.61 185.4 248.24 184.04 248.24 188.17 250.61 189.53 250.61 185.4"/><polygon class="cls-4" points="250.22 185.7 248.62 184.78 248.62 187.97 250.22 188.89 250.22 185.7"/><path class="cls-32" d="M250,194.77l3.22-2s-.73-1.65-.77-1.65-1.27-.75-1.8-.48a1.84,1.84,0,0,0-.84,1.64A19.24,19.24,0,0,0,250,194.77Z"/><path class="cls-22" d="M257.87,196.45a6.54,6.54,0,0,0-2.73-5.22,4,4,0,0,0-1.54-.34,4.44,4.44,0,0,0-2.06,1,2.49,2.49,0,0,0-.9,1.62l3.07,6.29a1.57,1.57,0,0,0,1.46.06,6.8,6.8,0,0,0,1.25-.71,3,3,0,0,0,1.06-1,5,5,0,0,0,.22-.52A3.62,3.62,0,0,0,257.87,196.45Z"/><path class="cls-5" d="M250.55,194.37a6.52,6.52,0,0,0,2.73,5.21c1.51.87,2.73-.05,2.73-2.06a6.54,6.54,0,0,0-2.73-5.22C251.77,191.43,250.55,192.36,250.55,194.37Z"/><path class="cls-22" d="M251.06,194.73a5.16,5.16,0,0,0,2.15,4.11c1.19.68,2.15-.05,2.15-1.63a5.12,5.12,0,0,0-2.15-4.1C252,192.42,251.06,193.15,251.06,194.73Z"/><path class="cls-4" d="M251.66,195a3.89,3.89,0,0,0,1.62,3.11c.9.51,1.62,0,1.62-1.23a3.87,3.87,0,0,0-1.62-3.1C252.38,193.29,251.66,193.84,251.66,195Z"/><path class="cls-4" d="M253.22,194.06a3.47,3.47,0,0,1,1.46,2.78c0,1.07-.65,1.57-1.46,1.1a3.49,3.49,0,0,1-1.45-2.78C251.77,194.08,252.42,193.59,253.22,194.06Zm.32.36a1,1,0,0,0-.31-.24.81.81,0,0,0-.54-.15.24.24,0,0,0-.15.07c0,.05,0,.11,0,.21s.12.22.19.32,0,0,.12,0a.64.64,0,0,1,.2,0,1.25,1.25,0,0,1,.32.2c.05,0,.07,0,.09,0a.89.89,0,0,0,.12-.26A.25.25,0,0,0,253.54,194.42Zm-1.09,1.13a1.86,1.86,0,0,0,.77,1.48c.43.25.78,0,.78-.58a1.88,1.88,0,0,0-.78-1.49C252.8,194.72,252.45,195,252.45,195.55Zm2,.45a3.16,3.16,0,0,0-.3-.79,2.82,2.82,0,0,0-.26-.39c-.07-.06-.11,0-.13,0a1.18,1.18,0,0,0-.09.3.22.22,0,0,0,0,.14,2.64,2.64,0,0,1,.24.43c0,.07.06.19.1.29s0,.15.06.18a1.48,1.48,0,0,0,.25.16c.08,0,.11,0,.12-.07A1.57,1.57,0,0,0,254.47,196Zm-.32,1.85a.55.55,0,0,0,.2-.19,1,1,0,0,0,.2-.59,2,2,0,0,0,0-.26c0-.11-.06-.15-.14-.17a.86.86,0,0,0-.23-.06s0,0,0,.14a.64.64,0,0,1-.06.22.69.69,0,0,1-.18.26.1.1,0,0,0,0,.12,2.58,2.58,0,0,0,.14.39C254,197.79,254.08,197.85,254.15,197.85Zm-1.35-.42a1.12,1.12,0,0,0,.18.21,1,1,0,0,0,.55.31.51.51,0,0,0,.29,0c.05,0,0-.11,0-.19a2.76,2.76,0,0,0-.18-.39s0-.08-.09-.08a.78.78,0,0,1-.32-.08,1.32,1.32,0,0,1-.2-.13c-.07,0-.1-.1-.12-.07a.9.9,0,0,0-.15.19C252.75,197.28,252.75,197.33,252.8,197.43Zm-.81-1.32a2.63,2.63,0,0,0,.35.77.78.78,0,0,0,.18.21c.07.06.1,0,.12,0a1.15,1.15,0,0,0,.07-.28c0-.06,0-.08-.08-.18a1.82,1.82,0,0,1-.14-.28,2.49,2.49,0,0,1-.15-.47.16.16,0,0,0-.07-.12,1,1,0,0,0-.28-.15c-.05,0-.09,0-.1.08A1.61,1.61,0,0,0,252,196.11Zm0-.74a1,1,0,0,0,.27.08s.06,0,.06-.07a1.43,1.43,0,0,1,.06-.39.81.81,0,0,1,.1-.18c0-.06.07-.06.06-.12s-.09-.26-.12-.36-.08-.15-.15-.14a.25.25,0,0,0-.15.08.91.91,0,0,0-.23.53,1.53,1.53,0,0,0,0,.4A.24.24,0,0,0,252,195.37Z"/><path class="cls-6" d="M253.14,195.26a1.5,1.5,0,0,1,.63,1.21c0,.46-.28.68-.63.48a1.53,1.53,0,0,1-.63-1.21C252.51,195.27,252.79,195.06,253.14,195.26Z"/><path class="cls-5" d="M254.38,196.34a1.48,1.48,0,0,1-.25-.16s0-.07-.06-.18-.07-.22-.1-.29a2.64,2.64,0,0,0-.24-.43.22.22,0,0,1,0-.14,1.18,1.18,0,0,1,.09-.3c0-.06.06-.08.13,0a2.82,2.82,0,0,1,.26.39,3.16,3.16,0,0,1,.3.79,1.57,1.57,0,0,1,0,.27C254.49,196.37,254.46,196.38,254.38,196.34Z"/><path class="cls-5" d="M253.47,194.89s0,0-.09,0a1.25,1.25,0,0,0-.32-.2.64.64,0,0,0-.2,0c-.07,0-.09,0-.12,0s-.14-.23-.19-.32-.06-.16,0-.21a.24.24,0,0,1,.15-.07.81.81,0,0,1,.54.15,1,1,0,0,1,.31.24.25.25,0,0,1,.05.21A.89.89,0,0,1,253.47,194.89Z"/><path class="cls-5" d="M251.89,194.8a.91.91,0,0,1,.23-.53.25.25,0,0,1,.15-.08c.07,0,.11,0,.15.14s.09.25.12.36,0,.06-.06.12a.81.81,0,0,0-.1.18,1.43,1.43,0,0,0-.06.39c0,.06,0,.07-.06.07a1,1,0,0,1-.27-.08.24.24,0,0,1-.13-.17A1.53,1.53,0,0,1,251.89,194.8Z"/><path class="cls-5" d="M252,195.58a1,1,0,0,1,.28.15.16.16,0,0,1,.07.12,2.49,2.49,0,0,0,.15.47,1.82,1.82,0,0,0,.14.28c.05.1.08.12.08.18a1.15,1.15,0,0,1-.07.28c0,.08,0,.09-.12,0a.78.78,0,0,1-.18-.21,2.63,2.63,0,0,1-.35-.77,1.61,1.61,0,0,1-.1-.45C251.9,195.57,251.94,195.56,252,195.58Z"/><path class="cls-5" d="M252.93,197s0,0,.12.07a1.32,1.32,0,0,0,.2.13.78.78,0,0,0,.32.08s.07,0,.09.08a2.76,2.76,0,0,1,.18.39c0,.08,0,.15,0,.19a.51.51,0,0,1-.29,0,1,1,0,0,1-.55-.31,1.12,1.12,0,0,1-.18-.21c-.05-.1-.05-.15,0-.21A.9.9,0,0,1,252.93,197Z"/><path class="cls-5" d="M253.87,197.2a.69.69,0,0,0,.18-.26.64.64,0,0,0,.06-.22c0-.09,0-.14,0-.14a.86.86,0,0,1,.23.06c.08,0,.12.06.14.17a2,2,0,0,1,0,.26,1,1,0,0,1-.2.59.55.55,0,0,1-.2.19c-.07,0-.11-.06-.15-.14a2.58,2.58,0,0,1-.14-.39A.1.1,0,0,1,253.87,197.2Z"/><path class="cls-6" d="M257.91,190.93l-.81-.47h0l-2.23-1.29h0l-.44-.25a1.2,1.2,0,0,0-1.39,0h0l-2.75,1.61a1.34,1.34,0,0,1,1.07.12c.14.06.46.23.89.47,1.13.66,2,1.17,2.29,1.31l.32.19a4.84,4.84,0,0,1,1.82,2.14,24.62,24.62,0,0,1,.44,4.16l2.78-1.61v-2.58A4.71,4.71,0,0,0,257.91,190.93Z"/><path class="cls-6" d="M250.27,190.49l-.09,0Z"/><path class="cls-4" d="M254.2,192l-2.57-1.49c-1.09-.63-2,0-2,1.49v2.57l.3.18v-2.58c0-1.22.75-1.79,1.67-1.26l2.57,1.49Z"/><path class="cls-4" d="M255.13,192.54l-3.07-1.77v.41l1.1.64h0l2,1.14a4,4,0,0,1,1.66,3.18v2.57l.31.18V196.3A4.75,4.75,0,0,0,255.13,192.54Z"/><path class="cls-13" d="M270.28,176.86a5.06,5.06,0,0,0-2.12-2.7l-5.59-3.23v6.26l-7.43,4.25,4.49,13.09,11.92-6.81s0-3.27,0-4.46A20.07,20.07,0,0,0,270.28,176.86Z"/><path class="cls-15" d="M250.64,189.47l9,5.06s0-3.27,0-4.47a20.18,20.18,0,0,0-1.28-6.4,5.08,5.08,0,0,0-2.12-2.69l-5.6-3.23Z"/><path class="cls-19" d="M262.59,170.93l-11.95,6.81,6.39,3.81,11.89-6.85a7.75,7.75,0,0,0-1.3-.85C266.42,173.19,262.59,170.93,262.59,170.93Z"/><path class="cls-22" d="M260.67,193.18V191a1.92,1.92,0,0,1,1.17-1.86c1.12-.67,7-4.17,7.84-4.66s1.21-.24,1.19.56,0,2.36,0,2.36Z"/><path class="cls-22" d="M272.28,188.66v-.18h0a3.73,3.73,0,0,0-.17-1.15,2.37,2.37,0,0,0-.55-.7l-11.92,6.88-1.95-1s-.25-.06-.65.3a1.21,1.21,0,0,0-.28.85,4,4,0,0,1,1,3.16c.46.27,1.33.77,1.72.93s.67.15,1.51-.34c1.55-.9,4.35-2.55,6.83-3.94,2-1.12,3.14-1.8,3.77-2.17a1.36,1.36,0,0,0,.65-1.17v-1.42Z"/><path class="cls-15" d="M260.74,193.92a2.17,2.17,0,0,1,.58.83,5.7,5.7,0,0,1,.39,1.53v-1.95Z"/><polygon class="cls-13" points="263.38 193.37 261.71 194.34 261.71 196.28 263.38 195.31 263.38 193.37"/><polygon class="cls-4" points="263.14 193.77 261.94 194.47 261.94 195.87 263.14 195.17 263.14 193.77"/><polygon class="cls-19" points="263.38 193.37 262.4 192.95 260.74 193.91 261.71 194.34 263.38 193.37"/><path class="cls-15" d="M269.06,189.11a2.17,2.17,0,0,1,.58.83,5.79,5.79,0,0,1,.39,1.53v-1.94Z"/><polygon class="cls-13" points="271.7 188.56 270.03 189.53 270.03 191.47 271.7 190.5 271.7 188.56"/><polygon class="cls-4" points="271.46 188.97 270.27 189.66 270.27 191.06 271.46 190.37 271.46 188.97"/><polygon class="cls-19" points="271.7 188.56 270.72 188.14 269.06 189.11 270.03 189.53 271.7 188.56"/><path class="cls-3" d="M257.36,187.33c-.85-3.19-1.85-4.05-3.21-4.85-.94-.55-1.89-1.07-2.6-1.47v4l6,3.47a.61.61,0,0,0,0-.15C257.49,188,257.44,187.66,257.36,187.33Z"/><path class="cls-6" d="M257.87,185.39a7.11,7.11,0,0,0-2-3.68,40.87,40.87,0,0,0-4.28-2.5V181c.71.4,1.66.92,2.6,1.47,1.36.8,2.36,1.66,3.21,4.85.08.33.13.66.18,1a.61.61,0,0,1,0,.15l1,.59A22.12,22.12,0,0,0,257.87,185.39Z"/><polygon class="cls-15" points="252.66 179.39 252.77 187.17 253.31 187.57 253.05 179.71 252.66 179.39"/><path class="cls-3" d="M264.27,185.39a44.27,44.27,0,0,1,5.34-3.08,28,28,0,0,0-.68-3.4c-.07-.27-.14-.53-.22-.78-.51.36-1,.71-1.57,1a23.64,23.64,0,0,1-8.12,3.09,6.69,6.69,0,0,1,.44.94,22.39,22.39,0,0,1,1.21,5.06A14.5,14.5,0,0,1,264.27,185.39Z"/><path class="cls-6" d="M269.68,177.45l-.6.42-.37.26c.08.25.15.51.22.78a28,28,0,0,1,.68,3.4,44.27,44.27,0,0,0-5.34,3.08,14.5,14.5,0,0,0-3.6,2.86c0,.37.06.73.07,1.09l10.13-5.94A20.28,20.28,0,0,0,269.68,177.45Z"/><path class="cls-3" d="M268.71,178.13a6.16,6.16,0,0,0-1-2.17l-9.21,5.47a6,6,0,0,1,.57.82,23.64,23.64,0,0,0,8.12-3.09C267.68,178.84,268.2,178.49,268.71,178.13Z"/><path class="cls-29" d="M268.71,178.13a6.16,6.16,0,0,0-1-2.17l-9.21,5.47a6,6,0,0,1,.57.82,23.64,23.64,0,0,0,8.12-3.09C267.68,178.84,268.2,178.49,268.71,178.13Z"/><path class="cls-6" d="M268.57,175.41l-.91.55a6.16,6.16,0,0,1,1,2.17l.37-.26.6-.42a2.31,2.31,0,0,0-.1-.28A5.55,5.55,0,0,0,268.57,175.41Z"/><path class="cls-29" d="M268.57,175.41l-.91.55a6.16,6.16,0,0,1,1,2.17l.37-.26.6-.42a2.31,2.31,0,0,0-.1-.28A5.55,5.55,0,0,0,268.57,175.41Z"/><path class="cls-13" d="M251.09,185.34v1.14c.38.19,2.8,1.41,4.29,2.2a1.64,1.64,0,0,1,1.11,1.76v2.05l.39-.26s0-2.25,0-3.06c0-.52-.43-.84-1-1.2Z"/><path class="cls-13" d="M270,186.85l-8.5,4.91c-.12.07-.21,0-.21-.16h0a.48.48,0,0,1,.21-.39l8.5-4.91c.11-.06.2,0,.2.16h0A.49.49,0,0,1,270,186.85Z"/><path class="cls-13" d="M270,185.74l-8.5,4.91c-.12.07-.21,0-.21-.15h0a.49.49,0,0,1,.21-.4l8.5-4.91c.11-.06.2,0,.2.16h0A.49.49,0,0,1,270,185.74Z"/><polygon class="cls-4" points="268.67 192.56 265.52 194.38 265.52 193.33 268.67 191.51 268.67 192.56"/><path class="cls-22" d="M257.21,177.73a1.17,1.17,0,0,0-.63-.16,1.2,1.2,0,0,0-.63.16h-.23v.34c0,.27.39.5.86.5s.87-.23.87-.5v-.34Z"/><path class="cls-5" d="M257.45,177.73c0,.27-.39.5-.87.5s-.86-.23-.86-.5.39-.5.86-.5S257.45,177.45,257.45,177.73Z"/><path class="cls-34" d="M257.1,176.67h-1l-.1,1.06c0,.19.27.35.61.35s.62-.16.62-.35Z"/><path class="cls-6" d="M257.1,176.67c0,.16-.23.29-.52.29s-.51-.13-.51-.29.23-.3.51-.3S257.1,176.5,257.1,176.67Z"/><path class="cls-22" d="M260.34,175.94a1.32,1.32,0,0,0-1.26,0h-.23v.34c0,.27.38.5.86.5s.86-.23.86-.5v-.34Z"/><path class="cls-5" d="M260.57,175.94c0,.27-.38.5-.86.5s-.86-.23-.86-.5.38-.5.86-.5S260.57,175.66,260.57,175.94Z"/><path class="cls-34" d="M260.22,174.87h-1l-.09,1.07c0,.19.27.35.61.35s.61-.16.61-.35Z"/><path class="cls-6" d="M260.22,174.87c0,.17-.23.3-.51.3s-.52-.13-.52-.3.23-.29.52-.29S260.22,174.71,260.22,174.87Z"/><path class="cls-22" d="M263.34,174.21a1.2,1.2,0,0,0-.63-.16,1.17,1.17,0,0,0-.63.16h-.23v.34c0,.27.38.5.86.5s.86-.23.86-.5v-.34Z"/><path class="cls-5" d="M263.57,174.21c0,.28-.39.5-.86.5s-.86-.22-.86-.5.38-.5.86-.5S263.57,173.93,263.57,174.21Z"/><path class="cls-34" d="M263.22,173.15h-1l-.1,1.06c0,.2.28.36.62.36s.61-.16.61-.36Z"/><ellipse class="cls-6" cx="262.71" cy="173.15" rx="0.52" ry="0.3"/><path class="cls-4" d="M224.19,167.14v-5.66l1,.55v5.67Z"/><path class="cls-4" d="M226.15,168.28v-5.67l1,.61.68,2.91c.05.2.09.39.13.59l.12.6h0l.12-.45a3,3,0,0,1,.12-.45l.67-2.13,1,.6v5.66l-.87-.5V168c0-.13,0-.29,0-.45s0-.32,0-.49l0-.48c0-.16,0-.3,0-.43l0,0-.35,1.15-.6,1.81-.53-.3-.61-2.52-.34-1.54h0c0,.14,0,.3,0,.48l0,.52c0,.18,0,.36,0,.53s0,.33,0,.47v2.07Z"/><path class="cls-4" d="M231.12,171.14v-5.66l1.46.84a4.3,4.3,0,0,1,.65.47,2.9,2.9,0,0,1,.54.62,3,3,0,0,1,.36.77,3.14,3.14,0,0,1,.13.94,1.86,1.86,0,0,1-.13.78.7.7,0,0,1-.36.39.85.85,0,0,1-.53.05,2.21,2.21,0,0,1-.64-.26l-.53-.3v1.92Zm.95-2.38.47.27c.52.3.79.15.79-.45a1.3,1.3,0,0,0-.21-.75,2,2,0,0,0-.6-.53l-.45-.25Z"/><path class="cls-4" d="M236.73,174.49a3.27,3.27,0,0,1-.79-.66,3.9,3.9,0,0,1-.61-.94,5.1,5.1,0,0,1-.39-1.16,5.63,5.63,0,0,1-.14-1.32,3.87,3.87,0,0,1,.14-1.16,1.44,1.44,0,0,1,.39-.68.83.83,0,0,1,.61-.21,1.68,1.68,0,0,1,.79.25,3.42,3.42,0,0,1,.78.65,4.2,4.2,0,0,1,.61.92,5.56,5.56,0,0,1,.4,1.15,6.12,6.12,0,0,1,.14,1.31,4.23,4.23,0,0,1-.14,1.16,1.56,1.56,0,0,1-.4.7.85.85,0,0,1-.61.24A1.64,1.64,0,0,1,236.73,174.49Zm0-1.11a.46.46,0,0,0,.69-.1,2.14,2.14,0,0,0,.25-1.21,3.92,3.92,0,0,0-.25-1.48,1.73,1.73,0,0,0-.69-.87.47.47,0,0,0-.69.08,2,2,0,0,0-.26,1.18,4.12,4.12,0,0,0,.26,1.51A1.66,1.66,0,0,0,236.73,173.38Z"/><path class="cls-4" d="M239.46,176v-5.67l1.53.89a4,4,0,0,1,.63.45,2.93,2.93,0,0,1,.52.59,2.59,2.59,0,0,1,.35.75,3,3,0,0,1,.13.92,1.57,1.57,0,0,1-.2.91.64.64,0,0,1-.55.28l1,2.83-1.07-.62-.82-2.51-.53-.31v2Zm.95-2.51.5.29c.25.15.44.19.58.12s.2-.24.2-.51a1.18,1.18,0,0,0-.2-.7,1.93,1.93,0,0,0-.58-.5l-.5-.29Z"/><path class="cls-4" d="M244.16,178.68v-4.59l-1.16-.67v-1.08l3.29,1.9v1.08l-1.16-.67v4.58Z"/><path class="cls-31" d="M303.21,190.89c0,1.48-2,2.69-4.58,2.69s-4.57-1.21-4.57-2.69,2.05-2.7,4.57-2.7S303.21,189.4,303.21,190.89Z"/><path class="cls-4" d="M301.69,190.6c0,1-1.37,1.8-3.06,1.8s-3.05-.8-3.05-1.8,1.37-1.8,3.05-1.8S301.69,189.61,301.69,190.6Z"/><path class="cls-16" d="M300.2,161.15c3.76,2.16,6.8,8,6.8,13a8.36,8.36,0,0,1-.7,3.58c-.08.18-4.71,9.86-4.71,9.86-.2-.15-6.26-12.53-7.33-16.41a19.69,19.69,0,0,1-.85-4.88C293.41,161.28,296.45,159,300.2,161.15Zm-.27,14.68c2.29,1.32,4.14-.08,4.14-3.12s-1.85-6.59-4.14-7.91-4.14.08-4.14,3.13S297.65,174.51,299.93,175.83Z"/><path class="cls-16" d="M291.82,163.14l4-2.36a18.51,18.51,0,0,1,7.53,5.38c3.06,3.84,2.4,9.94,1.45,12.67s-3.18,8.74-3.18,8.74l-3.68,2.2s1.86-8.31,3.15-12.36-.52-10.3-3.28-12.23A12.19,12.19,0,0,0,291.82,163.14Z"/><path class="cls-16" d="M291.31,167.35c.76-2,3.46-3.22,3.46-3.22s-.46,4.6.49,7.06,3.44,8.71,3.44,8.71-4.78-.77-5.95-2.55S290.54,169.38,291.31,167.35Z"/><path class="cls-31" d="M296.52,163.34c3.76,2.17,6.8,8,6.8,13a8.36,8.36,0,0,1-.7,3.58c-.08.18-4.71,9.87-4.71,9.87-.2-.16-6.26-12.54-7.33-16.41a19.78,19.78,0,0,1-.85-4.88C289.73,163.47,292.77,161.17,296.52,163.34ZM296.25,178c2.29,1.32,4.14-.08,4.14-3.13s-1.85-6.59-4.14-7.91-4.14.08-4.14,3.13S294,176.71,296.25,178Z"/><path class="cls-19" d="M255.92,110.46c0,.87-1.18,1.57-2.63,1.57s-2.63-.7-2.63-1.57,1.18-1.57,2.63-1.57S255.92,109.59,255.92,110.46Z"/><path class="cls-19" d="M264,105.9c0,.86-1.18,1.56-2.63,1.56s-2.63-.7-2.63-1.56,1.18-1.57,2.63-1.57S264,105,264,105.9Z"/><ellipse class="cls-19" cx="269.66" cy="101.21" rx="2.63" ry="1.57"/><path class="cls-19" d="M280.33,96.64c0,.87-1.18,1.57-2.63,1.57s-2.63-.7-2.63-1.57,1.18-1.56,2.63-1.56S280.33,95.78,280.33,96.64Z"/><path class="cls-19" d="M288.49,91.91c0,.86-1.18,1.56-2.63,1.56s-2.63-.7-2.63-1.56,1.18-1.57,2.63-1.57S288.49,91,288.49,91.91Z"/><path class="cls-19" d="M296.53,87.34c0,.87-1.18,1.57-2.63,1.57s-2.63-.7-2.63-1.57,1.18-1.56,2.63-1.56S296.53,86.48,296.53,87.34Z"/><path class="cls-19" d="M304.85,82.66c0,.86-1.18,1.56-2.63,1.56s-2.62-.7-2.62-1.56,1.17-1.57,2.62-1.57S304.85,81.79,304.85,82.66Z"/><path class="cls-19" d="M312.89,78.09c0,.87-1.17,1.57-2.63,1.57s-2.62-.7-2.62-1.57,1.17-1.57,2.62-1.57S312.89,77.23,312.89,78.09Z"/><circle class="cls-19" cx="253.84" cy="125.42" r="2.54"/><circle class="cls-19" cx="261.22" cy="129.93" r="2.54"/><circle class="cls-19" cx="268.61" cy="134.43" r="2.54"/><circle class="cls-19" cx="275.99" cy="138.93" r="2.54"/><circle class="cls-19" cx="283.38" cy="143.44" r="2.54"/><circle class="cls-19" cx="290.76" cy="147.94" r="2.54"/><circle class="cls-19" cx="298.14" cy="152.45" r="2.54"/><circle class="cls-19" cx="305.53" cy="156.95" r="2.54"/><circle class="cls-19" cx="312.91" cy="161.45" r="2.54"/><circle class="cls-19" cx="320.3" cy="165.96" r="2.54"/><circle class="cls-19" cx="327.68" cy="170.46" r="2.54"/><circle class="cls-19" cx="335.07" cy="174.96" r="2.54"/><circle class="cls-19" cx="342.45" cy="179.47" r="2.54"/><circle class="cls-19" cx="349.83" cy="183.97" r="2.54"/><circle class="cls-19" cx="357.22" cy="188.48" r="2.54"/></g></g></g></svg>