<svg xmlns="http://www.w3.org/2000/svg" viewBox="0 0 3176.56 596.24"><defs><style>.cls-1{fill:#fffcfc;}</style></defs><title>logo</title><g id="Layer_2" data-name="Layer 2"><g id="Layer_1-2" data-name="Layer 1"><path class="cls-1" d="M1055.71.21c-29,54.54-57.22,104.87-84.66,155.48-5.73-1.59-3.76-5.49-3.8-8.31-.1-6,.24-12,.46-18,.53-14.59-5.66-26.16-17.43-34-51.73-34.47-124-11-135.84,53.57-3.82,20.78.09,39.91,10.83,57.47a363.27,363.27,0,0,0,27.4,39.27c34.56,42.66,75.49,78.81,118.11,113.12,2,1.6,4.53,2.51,6.65,3.64,8.3-5.64,10.59-14.35,13-22.45,4.79-15.91,8.56-32.13,12.69-48.24.82-3.22,1.23-6.54,2-9.78,3-12.7,3.52-13.14,15.85-9.61q47,13.44,94,27.15c9.91,2.89,10.25,3.44,8.86,14.22-3.16,24.56-10.24,48.11-18.81,71.26-10.66,28.81-24.89,55.85-42,82.82,3.79,5.16,7.42,10.53,11.48,15.55q37.1,45.83,74.31,91.52c4.11,5.07,8,10.33,11.37,14.77-1.38,5-4.4,4.29-6.83,4.29-44,.06-88-.22-131.91.28-9.07.1-15.07-3.19-20.55-9.66-6-7.1-12.53-13.79-18.87-20.63-3.46-3.73-6.83-4.75-12.28-2.61-17.32,6.78-34.79,13.38-52.61,18.67C868,594.6,817.75,599.16,766.86,594.48A313.75,313.75,0,0,1,649,559.38c-35.69-18.68-55.35-48.84-65.77-86.17-8-28.6-4.67-56.77,5.6-84.28,8.47-22.67,21.19-42.92,36.21-61.78,21.72-27.28,47.26-50.56,75.13-71.37,4.27-3.19,8.79-6,13-9.34,3-2.4,3.37-5.41.77-8.6-3.38-4.13-6.73-8.28-9.91-12.55-21-28.13-36.19-59-42.68-93.67-4.2-22.42-5-44.89.52-67.37,4.6-18.74,8.66-37.62,12.68-56.49C675.74,2.1,678.91.07,684.3.23c4,.11,8,0,12,0h359.42ZM904.92,464.33c-3.12-4-6.24-8.29-9.61-12.35q-42.73-51.48-85.56-102.9c-2.13-2.56-4.27-5.11-6.45-7.62-2.95-3.4-6.26-4.79-10.27-1.64-14.61,11.51-29.56,22.64-43.68,34.72-6,5.1-10.76,11.85-15.05,18.51-15.42,24-14.09,45.87,3.85,68.11,17.3,21.46,40,32.66,67.42,33.76,35,1.41,66.73-9.85,96.68-26.95C903.27,467.39,903.78,465.93,904.92,464.33Z"/><path class="cls-1" d="M1770.32,63c-10.54,10.54-18.87,18.94-27.28,27.26-3.63,3.58-8.3,3.69-13,3.65-11.33-.09-22.67,0-34,0-37.32,0-74.65-.13-112,0-20.84.09-15.61-2.79-32.55,14.3a17.13,17.13,0,0,0-2.06,3.36c1.12,4.66,5,3.37,7.95,3.37q68,.12,136,.06h18.58c2.69,4.69-.07,6.39-1.72,8.09-10.22,10.51-20.84,20.65-30.82,31.38-5.88,6.33-12.28,8.87-21,8.75-34-.46-68-.19-102-.18-22,0-44-.11-66,.07-9.22.08-9.5.28-11.89,9.8q-17.52,69.72-34.76,139.52-32.54,131.87-64.91,263.75c-.16.65-.26,1.31-.47,1.95C1373.19,594,1377,594,1358.83,594h-136c-2,0-4,.05-6,0-6.62-.33-8.29-2.12-6.84-8.63,5.07-22.74,10-45.51,15.64-68.13q41.52-167.7,83.38-335.31c1.44-5.78,3.64-11.43,1.81-18.58H1057.38c1.42-4.85,1.85-8.55,3.48-11.59,25.21-46.93,50.67-93.73,75.8-140.71,3.84-7.17,8.2-11.86,17-10.53,3.25.49,6.65.07,10,.07L1579.57.21q115-.1,229.94-.21c5.33,0,10.67.05,16,.55.71.07,2.09,3.85,1.56,4.41-10,10.63-20.17,21.21-30.7,31.35-2.1,2-5.9,2.75-9,3.1-4.61.52-9.31.18-14,.18q-69,0-138,0c-5.85,0-12.28-1.51-17,3.63-4.33,4.76-8.32,9.83-12.46,14.76,4.7,7.28,12,3.54,17.91,3.59,42,.35,84,.15,126,.23C1755.59,61.86,1761.38,62.47,1770.32,63Z"/><path class="cls-1" d="M0,594.27c1.73-4.82,2.47-7.93,3.89-10.68C20.68,551.05,37.82,518.7,54.26,486c4.1-8.16,8.88-11.47,18.31-11.41,68,.41,135.94.21,203.91.21,8,0,16,.11,24,0,11.36-.2,11.7-.41,14.34-12,6.92-30.52,13.67-61.06,20.53-91.59q40.08-178.26,80.22-356.51c.73-3.24,1.31-6.68,2.92-9.47a10.23,10.23,0,0,1,6-4.24c3.16-.74,6.62-.33,9.95-.33q69,0,137.94,0a58.48,58.48,0,0,1,11.84,1c1.4.29,3.27,2.69,3.31,4.17a40.13,40.13,0,0,1-1.37,9.86Q541.84,211.31,497.49,407q-19,83.74-38,167.47c-.74,3.25-1.3,6.54-2.18,9.74-2.54,9.2-2.87,9.61-12.11,9.72-18.66.22-37.32.28-56,.28q-184.93,0-369.85,0Z"/><path class="cls-1" d="M1560.74,574.58q3.78-23.91,5-38.28a97.76,97.76,0,0,0,20.73,7.81,75,75,0,0,0,16.78,2.18q9.78,0,16.2-2.86t7.65-8.47a11.72,11.72,0,0,0,.23-3.65,11.88,11.88,0,0,0-1.27-3.93,22.22,22.22,0,0,0-3.46-4.77l-17.12-18.41q-6-6.29-8.36-9.09a49.59,49.59,0,0,1-6.94-10.66,30,30,0,0,1-2.64-10.05,37.13,37.13,0,0,1,.85-10.83,45.72,45.72,0,0,1,5.35-13.41,55.39,55.39,0,0,1,9.93-12.29,56.45,56.45,0,0,1,15-9.88,68.77,68.77,0,0,1,18.3-5.67A120,120,0,0,1,1656,420.8a201.36,201.36,0,0,1,40.34,4.38q-1.35,7.76-2.32,14.2T1691.23,462a85,85,0,0,0-17.6-5.78,74.27,74.27,0,0,0-14.34-1.63,33.63,33.63,0,0,0-15.25,3.26q-6.49,3.25-7.55,8.08a10.4,10.4,0,0,0-.06,4.37,15.22,15.22,0,0,0,2.27,5,42.32,42.32,0,0,0,5.14,6.28q3.29,3.44,10.46,10.16l6.68,6.4a76.62,76.62,0,0,1,6.2,7.07,56.2,56.2,0,0,1,5.39,8.2,35.07,35.07,0,0,1,3,7.4,27.18,27.18,0,0,1,.93,6.8,33.28,33.28,0,0,1-.82,7.35,50,50,0,0,1-9,19.25,56,56,0,0,1-17,15,71.75,71.75,0,0,1-21.28,8.25,110.26,110.26,0,0,1-22.91,2.36Q1587.31,579.86,1560.74,574.58Z"/><path class="cls-1" d="M1815.52,420.8a112.44,112.44,0,0,1,33.51,4.83,58.89,58.89,0,0,1,25.69,15.43A51.36,51.36,0,0,1,1888,465.48q3.15,13.8-.77,31.76a103.86,103.86,0,0,1-14.37,34.63,99.94,99.94,0,0,1-25.45,26.77,103.86,103.86,0,0,1-34.05,16.11,145.12,145.12,0,0,1-38,5.11,119.83,119.83,0,0,1-35.27-5q-16.3-5-26.72-16.16a48.24,48.24,0,0,1-12.8-24.87q-2.38-13.68,1.27-30.41a99.79,99.79,0,0,1,20.84-43.16q15.46-18.58,40.14-29A133.94,133.94,0,0,1,1815.52,420.8Zm-9.42,33.79a51.71,51.71,0,0,0-24.73,6.34,58,58,0,0,0-19.91,17.62,65.33,65.33,0,0,0-10.91,24.19q-2.6,11.91.35,21.78A26.3,26.3,0,0,0,1763.06,540a39.67,39.67,0,0,0,20.9,5.56,51.06,51.06,0,0,0,24.2-6.23,55.55,55.55,0,0,0,19.66-17.51,65.18,65.18,0,0,0,10.62-23.63,45.62,45.62,0,0,0-.2-22.17,26.85,26.85,0,0,0-11.37-15.77Q1818.34,454.59,1806.1,454.59Z"/><path class="cls-1" d="M2028.61,539.56q-2.79,6.6-7.29,18.41t-6.58,18.29a308.52,308.52,0,0,1-43.66,3.6,110.67,110.67,0,0,1-32.85-4.55,63.21,63.21,0,0,1-25.47-14.93A44.18,44.18,0,0,1,1899.41,536q-2.54-14,1.27-31.43A102.86,102.86,0,0,1,1916.25,468,98.84,98.84,0,0,1,1944,441a116.26,116.26,0,0,1,34.54-15.49,143.28,143.28,0,0,1,36-4.66q16.6,0,40.14,4.27l-1.83,9.43q-1.14,6.17-2.3,13.58l-2,12.8a203.87,203.87,0,0,0-20.33-4.27,105.68,105.68,0,0,0-14.86-1.12,68.83,68.83,0,0,0-28.6,6.06,62.76,62.76,0,0,0-22.94,17.62,60.3,60.3,0,0,0-12.56,25.59q-2.79,12.79,1,22a28.52,28.52,0,0,0,12.67,14.14q8.85,5,23.44,5a132.44,132.44,0,0,0,17.62-1.3A236.94,236.94,0,0,0,2028.61,539.56Z"/><path class="cls-1" d="M2042.32,576.94q26.19-90.14,36.83-138.74l3-14.48q19.62.22,26.24.23,3,0,24.2-.23-7.56,25.26-13.73,47.82-8.46,31.43-15.11,58.76t-10.89,46.64l-22.95-.23Q2063.24,576.71,2042.32,576.94Z"/><path class="cls-1" d="M2100.35,576.94l12.86-16.17,82-109.32,8.86-12.24q3.87-5.38,10.91-15.49,19.7.22,28.79.23,15.83,0,29.35-.23l6.13,46.81,13.61,90,2.93,16.39q-19.39-.23-23.55-.23-9.43,0-27.81.23a428.34,428.34,0,0,0-4.69-43.55h-56.51q-14.09,19.75-29.72,43.55-20.85-.23-25.56-.23Q2119.38,576.71,2100.35,576.94Zm103.58-76.22h34.86q-4.34-39.56-4.69-43.58-11,16.47-18.47,27Z"/><path class="cls-1" d="M2306.43,576.94q8.61-26.49,13.51-43.22,9.06-30.53,16.83-60.67t12-49.33q15.21.22,27,.23,8,0,22.93-.23l-11.59,40.64-17.29,63.53-3.86,15.6q19.23.33,25.07.33,29.53,0,44.87-.78l-9.89,33.9q-29.47-.23-56.19-.23Q2333.65,576.71,2306.43,576.94Z"/><path class="cls-1" d="M2609.4,487.59q15.33.23,29.25.22,23.79,0,37.31-.22-4.83,15.38-12.5,43.55t-11.16,42.54q-13.43,2.36-22.13,3.43t-20.79,1.9q-12.09.84-21.4.85a171.69,171.69,0,0,1-29.43-2.47,83.14,83.14,0,0,1-24.58-8,40.37,40.37,0,0,1-16.1-14.93,53.8,53.8,0,0,1-7.06-22.34,82.87,82.87,0,0,1,1.63-26.71,102.28,102.28,0,0,1,20.6-42.32,111,111,0,0,1,39.37-30.92q23.78-11.4,57.44-11.4a262,262,0,0,1,53.14,5.95q-3.59,16.39-6.53,36.48-7.49-2.69-12.18-4.09a105.24,105.24,0,0,0-11.1-2.59q-6.43-1.17-12.31-1.74t-10.59-.56a83.23,83.23,0,0,0-24.12,3.54,65.24,65.24,0,0,0-21.3,10.89,63.36,63.36,0,0,0-15.69,17.56,70.7,70.7,0,0,0-8.64,21.55q-2.54,11.56,0,20.6a21.78,21.78,0,0,0,11.25,13.75q8.73,4.71,20.74,4.72a100.79,100.79,0,0,0,22.53-2.92l6.61-24.36c-4.83-.22-7.69-.34-8.59-.34l-12,.12,3.81-13.81q.6-2.25,1.75-6.45T2609.4,487.59Z"/><path class="cls-1" d="M2678.86,576.94q6.45-19.76,11.16-35.58t10.17-36.71q5.47-20.88,11-44t8.52-36.88q14,.34,22.6.34,9,0,22-.51t25.25-.5a251.86,251.86,0,0,1,25.35,1.12,54.76,54.76,0,0,1,14.6,3.26,33.27,33.27,0,0,1,10.3,6,26.59,26.59,0,0,1,6.13,7.92,27.59,27.59,0,0,1,2.63,10.27,43.61,43.61,0,0,1-1,12.62,58.47,58.47,0,0,1-5,14.09,54.83,54.83,0,0,1-8.71,12.35,55.44,55.44,0,0,1-12.51,10,118.27,118.27,0,0,1-19.34,8.58l2.72,14.26q1.17,6,2.62,12.12l7.85,32.89q.54,2.13,1.75,8.42-18.47-.23-24.85-.23-8.09,0-26.53.23-.51-5.84-1.77-21.67c-.31-4.41-.65-7.82-1-10.21q-.94-8-3.09-22.34L2755,491a61.22,61.22,0,0,0,11.65,1.12,47.18,47.18,0,0,0,15.41-2.47,26.94,26.94,0,0,0,11.78-7.63,24.29,24.29,0,0,0,5.8-10.89,12.68,12.68,0,0,0-.72-8.47q-1.78-3.66-6.95-5.45t-16.72-1.79q-3.93,0-8.18.16c-2.83.12-6.13.21-9.88.29q-6.48,23-14.83,56.12t-15.66,65q-18.72-.23-24.34-.23Q2695.88,576.71,2678.86,576.94Z"/><path class="cls-1" d="M2880.44,423.72q17.46.22,24.63.23,9,0,23.95-.23l-13.78,47.71q-3.94,13.47-7,25.25T2904.15,513a69.46,69.46,0,0,0-1.89,14.25,18.56,18.56,0,0,0,2.36,9.71,14.6,14.6,0,0,0,7.72,6,32.62,32.62,0,0,0,11.61,2,37,37,0,0,0,10.42-1.47,30,30,0,0,0,7.34-3.34,30.75,30.75,0,0,0,5.51-4.68,44.25,44.25,0,0,0,5.91-8,59.92,59.92,0,0,0,5.26-11.76q2.63-7.35,10-33.42,6.32-22.18,11.14-40.63,4.59-17.91,5.16-17.91h49.49l-22.89,79.7c-.41,1.49-.71,2.73-.93,3.7q-5.55,23.36-10.07,32.94a57.69,57.69,0,0,1-11.67,16.67q-7.17,7.08-19.19,12.74a99.05,99.05,0,0,1-26.23,8,172.51,172.51,0,0,1-28.25,2.36,151.33,151.33,0,0,1-23.85-1.8,80.78,80.78,0,0,1-18.29-5.22,52.53,52.53,0,0,1-13.29-8,28.43,28.43,0,0,1-7.08-8.69,28.77,28.77,0,0,1-2.61-10.61,52.17,52.17,0,0,1,1.24-14.93c.4-1.8,1.06-4.51,2-8.14s2.42-8.85,4.44-15.66l5.4-17.95q2.1-7.08,5.78-20.77Z"/><path class="cls-1" d="M3019.29,576.94l8.52-28.74L3043,492.08l9.92-39.73q1.52-6.41,2.92-12.8,1.05-4.83,3.35-15.83,14.75.34,23.73.34,8.64,0,23.8-.51t25.6-.5q15,0,21.87,1.91a31.47,31.47,0,0,1,11.77,6,28.06,28.06,0,0,1,7.55,9.6,32.89,32.89,0,0,1,3,12.52,53.6,53.6,0,0,1-1.22,14.31,65.91,65.91,0,0,1-13.32,27.5,62.42,62.42,0,0,1-24.61,18.63,79.15,79.15,0,0,1-31.1,6.17,81.17,81.17,0,0,1-13.74-1.34q.24-5.18,0-15.38c-.15-6.81-.4-11.86-.72-15.16a47.69,47.69,0,0,0,10.1,1q11.34,0,18.09-5.45a23.07,23.07,0,0,0,8.46-13.3,16.87,16.87,0,0,0,.26-6.79,8.35,8.35,0,0,0-2.86-4.88,11.41,11.41,0,0,0-5.41-2.47,41.25,41.25,0,0,0-7.29-.56q-4,0-8.47.22l-9.57.67q-6.18,21.68-12.76,48.16-12,48.26-14.12,57.92L3065,576.94l-22.31-.23Q3038,576.71,3019.29,576.94Z"/></g></g></svg>